<?xml version="1.0" encoding="UTF-8" standalone="no"?>
<svg
   height="100"
   viewBox="0 0 100 100"
   width="100"
   version="1.1"
   id="svg17"
   sodipodi:docname="canadalife-log.svg"
   xmlns:inkscape="http://www.inkscape.org/namespaces/inkscape"
   xmlns:sodipodi="http://sodipodi.sourceforge.net/DTD/sodipodi-0.dtd"
   xmlns="http://www.w3.org/2000/svg"
   xmlns:svg="http://www.w3.org/2000/svg">
  <defs
     id="defs17" />
  <sodipodi:namedview
     id="namedview17"
     pagecolor="#ffffff"
     bordercolor="#000000"
     borderopacity="0.25"
     inkscape:showpageshadow="2"
     inkscape:pageopacity="0.0"
     inkscape:pagecheckerboard="0"
     inkscape:deskcolor="#d1d1d1">
    <inkscape:page
       x="0"
       y="0"
       width="100"
       height="100"
       id="page2"
       margin="0"
       bleed="0" />
  </sodipodi:namedview>
  <g
     id="g17"
     transform="matrix(0.46296039,0,0,0.46296039,-165.62352,0)">
    <g
       fill="#ba0c2f"
       id="g7">
      <path
         d="m 532.81579,98.1547 c -10.9675,0 -17.7082,10.9278 -17.7082,21.8916 0,1.7197 0.1954,3.0125 0.4224,4.2486 16.6595,-3.2024 24.7925,-12.0834 24.7925,-19.1269 0,-4.4409 -2.80338,-7.0133 -7.5067,-7.0133 z"
         id="path2" />
      <path
         d="m 384.65619,119.5671 c 0.7083,-10.0551 2.6504,-20.1551 4.4964,-28.1597 5.664,-24.5597 15.239,-43.2668 28.7626,-43.2668 9.4054,0 12.8987,6.5333 12.97592,14.2584 0.20508,20.3603 -16.33512,45.2526 -36.02442,60.9004 -0.2581,9.7833 2.8813,14.2957 8.6222,14.2957 10.31422,0 20.59522,-10.5101 29.45422,-31.672 1.20858,-2.887 2.35828,-6.206 3.62928,-9.4031 1.7715,-4.4562 11.0348,-1.8754 9.7085,2.5551 -2.84278,9.4741 -7.3922,22.009 -7.3922,30.2925 0,5.5413 2.7883,7.8465 6.8965,7.786 5.7133,-0.0842 10.3934,-4.1802 13.7357,-8.1744 0,0 2.3521,-11.779 3.0376,-15.0345 9.6594,-45.8748 20.8123,-65.8173 35.4359,-65.8173 8.7355,0 13.1712,5.3682 13.1712,14.044 0,15.9103 -10.958,34.1885 -32.0356,59.4352 6.5718,2.2972 13.81412,4.0186 23.0409,4.0186 0.5428,0 1.815,-0.005 2.3434,-0.0146 -0.1968,-1.2589 -0.38718,-3.5652 -0.38718,-5.4813 0,-17.84 12.76528,-30.5624 28.51768,-30.5624 10.3041,0 18.3127,4.8187 18.3127,15.4078 0,13.2579 -14.0571,23.7712 -31.7845,27.4273 2.7612,3.2781 8.1799,5.6262 15.7637,5.6262 17.0085,0 30.11842,-8.3543 38.8133,-16.4831 V 0 H 357.7488 v 133.9327 c 9.9738,-3.7105 19.1998,-8.7773 26.9074,-14.3656 z m 63.5367,-49.3231 c 4.0463,0 7.19122,3.292 7.0116,7.3383 -0.1807,4.0464 -3.62,7.3384 -7.6663,7.3384 -4.0463,0 -7.1912,-3.292 -7.0105,-7.3384 0.1797,-4.0463 3.6188,-7.3383 7.6652,-7.3383 z"
         id="path3" />
      <path
         d="m 497.87949,56.7237 c -5.1943,0 -15.69138,15.0412 -24.8109,58.2442 15.4387,-19.5221 27.9596,-41.6059 27.9596,-53.085 0,-3.035 -0.8803,-5.1592 -3.1487,-5.1592 z"
         id="path4" />
      <path
         d="m 534.94839,147.1887 c -14.8189,0 -23.1731,-5.7533 -27.6356,-13.0412 -1.45468,0.0748 -3.16868,0.1122 -4.7284,0.1122 -7.8018,0 -14.8567,-1.0671 -19.9239,-2.7376 4.0218,8.5659 6.6293,19.7835 6.6039,29.9924 -0.047,19.4187 -7.0358,32.1752 -20.3729,32.1752 -9.5012,0 -14.9138,-6.935 -15.1028,-21.239 -0.1377,-10.4276 1.2483,-19.0762 3.3099,-30.7918 -3.2308,2.6924 -7.7514,4.6354 -13.1808,4.6552 -9.8038,0.0357 -15.2605,-6.1968 -15.6515,-14.7939 -7.6275,10.283 -16.8005,15.233 -26.3727,15.233 -10.43448,0 -16.0021,-6.7044 -17.1042,-16.7143 -7.481,4.7473 -16.6065,9.7128 -27.0406,13.4339 v 72.5271 h 216.00119 v -82.6974 c -11.5071,9.1495 -24.8306,13.8862 -38.8016,13.8862 z"
         id="path5" />
      <path
         d="m 417.94499,56.7345 c -5.6202,0 -15.5378,16.7954 -21.71,53.7123 17.5887,-17.1684 24.7603,-39.3794 24.7603,-48.207 0,-4.0936 -1.0828,-5.5053 -3.0503,-5.5053 z"
         id="path6" />
      <path
         d="m 469.72279,131.227 c -2.2912,10.6318 -5.4275,29.3529 -5.4275,41.236 0,6.9072 1.5006,11.2944 5.5115,11.2944 6.9562,0 9.0326,-12.2461 9.0326,-21.3102 0,-11.7507 -3.0435,-24.124 -7.7202,-32.6695 z"
         id="path7" />
    </g>
    <path
       d="m 447.53819,84.9207 c 4.0463,0 7.4856,-3.292 7.6663,-7.3384 0.17962,-4.0464 -2.9653,-7.3384 -7.0116,-7.3384 -4.0463,0 -7.4855,3.292 -7.6652,7.3384 -0.1807,4.0464 2.9641,7.3384 7.0105,7.3384 z"
       fill="#ffffff"
       id="path14" />
    <path
       d="m 534.93669,138.0281 c -7.5838,0 -13.0025,-2.348 -15.7637,-5.6262 17.7274,-3.6561 31.7845,-14.1694 31.7845,-27.4271 0,-10.5892 -8.0086,-15.4079 -18.3127,-15.4079 -15.7524,0 -28.51768,12.7223 -28.51768,30.5624 0,1.9161 0.19038,4.2223 0.38718,5.4813 -0.5284,0.01 -1.8006,0.0146 -2.3434,0.0146 -9.22678,0 -16.4691,-1.7214 -23.0409,-4.0186 21.0776,-25.2466 32.0356,-43.5249 32.0356,-59.4352 0,-8.6759 -4.4357,-14.044 -13.1712,-14.044 -14.6236,0 -25.7765,19.9425 -35.4359,65.8172 -0.6855,3.2555 -3.0376,15.0346 -3.0376,15.0346 -3.3423,3.9942 -8.0224,8.0902 -13.7357,8.1744 -4.1082,0.0604 -6.8965,-2.2447 -6.8965,-7.7859 0,-8.2836 4.54942,-20.8185 7.3922,-30.2927 1.3263,-4.4303 -7.937,-7.0113 -9.7085,-2.5551 -1.271,3.1971 -2.4207,6.5162 -3.62928,9.4033 -8.859,21.1617 -19.14,31.6719 -29.45422,31.6719 -5.7409,0 -8.8803,-4.5123 -8.6222,-14.2957 19.6893,-15.6479 36.2295,-40.5402 36.02442,-60.9003 -0.0772,-7.7251 -3.57052,-14.2585 -12.97592,-14.2585 -13.5236,0 -23.0986,18.707 -28.7626,43.2668 -1.846,8.0046 -3.7881,18.1046 -4.4964,28.1597 -7.7076,5.5882 -16.9336,10.655 -26.9074,14.3656 v 9.5401 c 10.4341,-3.7211 19.5596,-8.6866 27.0406,-13.4339 1.1021,10.01 6.66972,16.7143 17.1042,16.7143 9.5722,0 18.7452,-4.9501 26.3727,-15.2331 0.391,8.5972 5.8477,14.8297 15.6515,14.7939 5.4294,-0.0198 9.95,-1.9628 13.1808,-4.655 -2.0616,11.7156 -3.4476,20.3641 -3.3099,30.7917 0.189,14.3039 5.6016,21.239 15.1028,21.239 13.3371,0 20.3259,-12.7564 20.3729,-32.1752 0.0254,-10.2089 -2.5821,-21.4264 -6.6039,-29.9924 5.0672,1.6704 12.1221,2.7377 19.9239,2.7377 1.55972,0 3.27372,-0.0374 4.7284,-0.1122 4.4625,7.2877 12.8167,13.041 27.6356,13.041 13.971,0 27.2945,-4.7366 38.8016,-13.886 V 121.545 c -8.69488,8.1288 -21.8048,16.4831 -38.8133,16.4831 z M 417.94499,56.7346 c 1.9675,0 3.0503,1.4116 3.0503,5.5052 0,8.8275 -7.1716,31.0386 -24.7603,48.207 6.1722,-36.917 16.0898,-53.7122 21.71,-53.7122 z m 79.9345,-0.011 c 2.2684,0 3.1487,2.1243 3.1487,5.1593 0,11.4791 -12.5209,33.5629 -27.9596,53.085 9.11952,-43.203 19.6166,-58.2443 24.8109,-58.2443 z m -28.0727,127.0339 c -4.0109,0 -5.5115,-4.3872 -5.5115,-11.2946 0,-11.8831 3.1363,-30.6042 5.4275,-41.2358 l 1.3964,-1.4494 c 4.6767,8.5455 7.7202,20.9187 7.7202,32.6694 0,9.0641 -2.0764,21.3104 -9.0326,21.3104 z m 45.3008,-63.7112 c 0,-10.9638 6.7407,-21.8917 17.7082,-21.8917 4.70332,0 7.5067,2.5725 7.5067,7.0135 0,7.0433 -8.133,15.9243 -24.7925,19.1268 -0.227,-1.2361 -0.4224,-2.5289 -0.4224,-4.2486 z"
       fill="#ffffff"
       id="path15" />
  </g>
</svg>
