<svg width="240" height="36" viewBox="0 0 240 36" fill="none" xmlns="http://www.w3.org/2000/svg">
<path d="M13.8439 33.2883L13.5946 33.0405L13.3453 32.7947L28.7043 17.5279L13.3453 2.26105L13.5946 2.01326L13.8439 1.76739C14.4069 1.20711 15.0755 0.762626 15.8114 0.459364C16.5474 0.156102 17.3362 0 18.1329 0C18.9296 0 19.7184 0.156102 20.4544 0.459364C21.1903 0.762626 21.8589 1.20711 22.4219 1.76739L38.2678 17.5183L22.4219 33.2691C21.8589 33.8294 21.1903 34.2739 20.4544 34.5771C19.7184 34.8804 18.9296 35.0365 18.1329 35.0365C17.3362 35.0365 16.5474 34.8804 15.8114 34.5771C15.0755 34.2739 14.4069 33.8294 13.8439 33.2691V33.2883Z" fill="#006EB3"/>
<path d="M8.21084 28.2307L5.79916 25.8355L14.1569 17.5278L5.79916 9.22023L8.21084 6.82303C8.84103 6.19678 9.69565 5.84497 10.5868 5.84497C11.4779 5.84497 12.3325 6.19678 12.9627 6.82303L23.7302 17.5355L12.9607 28.2307C12.649 28.5413 12.2786 28.7877 11.8709 28.9558C11.4632 29.1239 11.0262 29.2104 10.5848 29.2104C10.1435 29.2104 9.70641 29.1239 9.29871 28.9558C8.89102 28.7877 8.52068 28.5413 8.2089 28.2307H8.21084Z" fill="#006EB3"/>
<path d="M9.60411 17.5278L6.70547 14.6235L3.80682 11.7423L1.41447 14.1203C0.508786 15.0208 0 16.242 0 17.5154C0 18.7887 0.508786 20.0099 1.41447 20.9104L3.80682 23.2903L9.60411 17.5278Z" fill="#006EB3"/>
<path d="M59.6811 14.6927C59.3493 14.2815 58.9214 13.9571 58.4347 13.7476C57.932 13.5135 57.384 13.3909 56.8288 13.3885C56.2937 13.3803 55.7641 13.4974 55.2829 13.7304C54.8321 13.9532 54.4311 14.2642 54.1041 14.6447C53.7686 15.0347 53.5067 15.4817 53.3311 15.9643C53.1435 16.4757 53.0493 17.0162 53.0529 17.5605C53.0524 18.1039 53.1438 18.6435 53.3234 19.1567C53.4911 19.6429 53.7537 20.0914 54.0964 20.4763C54.433 20.8563 54.8465 21.1614 55.3099 21.3714C55.8085 21.5961 56.3511 21.7076 56.8984 21.698C57.4541 21.696 58.0046 21.5911 58.5216 21.3887C59.0234 21.205 59.4693 20.8961 59.8164 20.4917L62.7923 24.1086C62.0425 24.8062 61.1471 25.3309 60.17 25.6453C59.0733 26.02 57.9208 26.2077 56.7612 26.2004C55.533 26.2105 54.3122 26.0117 53.1514 25.6126C52.0737 25.2459 51.0827 24.6641 50.2393 23.9031C49.407 23.1402 48.7459 22.2115 48.2991 21.1774C47.3536 18.869 47.3536 16.2846 48.2991 13.9762C48.7487 12.9434 49.4117 12.0161 50.245 11.2544C51.0904 10.4913 52.0804 9.90352 53.1572 9.52564C54.3039 9.11683 55.514 8.91138 56.7322 8.91866C57.3202 8.91857 57.907 8.97258 58.4849 9.08002C59.0521 9.18686 59.6108 9.33451 60.1565 9.52181C60.6713 9.69619 61.1657 9.92546 61.6309 10.2056C62.0523 10.4564 62.4416 10.757 62.7904 11.1007L59.6811 14.6927Z" fill="#006EB3"/>
<path fill-rule="evenodd" clip-rule="evenodd" d="M80.6732 21.0833C81.1648 19.9494 81.4105 18.7252 81.3941 17.4906C81.4115 16.2607 81.1658 15.0412 80.6732 13.9128C80.2173 12.8832 79.5468 11.9614 78.706 11.2083C77.8639 10.463 76.884 9.88756 75.8209 9.5141C73.5546 8.73295 71.0898 8.73295 68.8236 9.5141C67.7581 9.88249 66.7772 10.4585 65.9384 11.2083C65.1065 11.9653 64.4424 12.8864 63.9886 13.9128C63.4959 15.0387 63.2502 16.256 63.2678 17.4837C63.2495 18.7207 63.4951 19.9475 63.9886 21.0833C64.4415 22.1197 65.1053 23.0517 65.9384 23.8205C66.7777 24.5818 67.7575 25.1741 68.8236 25.5646C71.0822 26.3893 73.5622 26.3893 75.8209 25.5646C76.8846 25.1691 77.8634 24.5774 78.706 23.8205C79.5479 23.0556 80.2183 22.123 80.6732 21.0833ZM75.9523 15.9585C76.1273 16.4521 76.2161 16.9718 76.2151 17.4952V17.4857C76.215 18.0069 76.1322 18.5248 75.9697 19.0203C75.8081 19.5095 75.5579 19.9652 75.2315 20.3649C74.6937 21.0144 73.95 21.4631 73.1222 21.6376C72.2944 21.812 71.4315 21.702 70.6748 21.3253C70.2056 21.0964 69.7922 20.7686 69.4632 20.3649C69.136 19.9657 68.8857 19.5099 68.725 19.0203C68.3977 18.0256 68.3977 16.9532 68.725 15.9585C68.8786 15.4771 69.1232 15.0292 69.4458 14.6389C69.7747 14.2493 70.1822 13.9325 70.642 13.7092C71.1672 13.4732 71.7371 13.3511 72.3135 13.3511C72.89 13.3511 73.4598 13.4732 73.9851 13.7092C74.448 13.9355 74.8606 14.2516 75.1986 14.6389C75.5322 15.027 75.788 15.4749 75.9523 15.9585Z" fill="#006EB3"/>
<path d="M91.9314 15.4418H83.6065V19.6773H91.9314V15.4418Z" fill="#006EB3"/>
<path d="M189.672 19.6369V13.4211H193.513V9.44689H189.678V5.17879H184.4V9.44689H181.811V13.4211H184.433V20.2804C184.424 21.0795 184.523 21.8761 184.729 22.6488C184.907 23.3231 185.238 23.9484 185.695 24.4774C186.176 25.0182 186.79 25.4264 187.477 25.6626C188.363 25.9579 189.295 26.0964 190.23 26.0717C190.802 26.0708 191.372 26.022 191.935 25.9257C192.413 25.8494 192.884 25.735 193.343 25.5838L193.278 21.673C193.042 21.7686 192.794 21.8332 192.542 21.8651C192.265 21.9075 191.985 21.9294 191.705 21.9304C190.939 21.9304 190.408 21.7268 190.114 21.3541C189.821 20.9815 189.672 20.4053 189.672 19.6369Z" fill="#006EB3"/>
<path fill-rule="evenodd" clip-rule="evenodd" d="M165.791 11.6635C166.752 10.7502 167.897 10.0503 169.151 9.61015C170.403 9.1561 171.724 8.92211 173.057 8.91865C174.435 8.91865 175.599 9.08705 176.549 9.42383C177.451 9.72509 178.253 10.2658 178.868 10.9874C179.495 11.7704 179.937 12.6835 180.162 13.6593C180.455 14.914 180.593 16.1996 180.572 17.4875V25.6645H175.646V23.9357H175.55C175.099 24.6388 174.44 25.1857 173.664 25.5012C172.801 25.8746 171.868 26.0631 170.927 26.0544C170.241 26.0509 169.559 25.9631 168.894 25.7932C168.21 25.627 167.56 25.3401 166.977 24.9461C166.386 24.5426 165.897 24.0072 165.551 23.3825C165.158 22.6407 164.966 21.8099 164.995 20.9719C164.995 19.7989 165.317 18.8539 165.961 18.1367C166.645 17.3928 167.5 16.823 168.452 16.4752C169.543 16.0674 170.684 15.8045 171.845 15.6934C173.054 15.566 174.268 15.5019 175.484 15.5014V15.2401C175.484 14.4372 175.198 13.8456 174.632 13.4653C174.007 13.0667 173.275 12.8658 172.533 12.889C171.769 12.8893 171.013 13.0559 170.32 13.3769C169.658 13.6735 169.044 14.0693 168.502 14.5505L165.791 11.6635ZM175.646 18.6035H174.958C174.369 18.6035 173.772 18.6304 173.173 18.6842C172.627 18.7272 172.089 18.8309 171.567 18.9934C171.134 19.1253 170.737 19.354 170.407 19.6619C170.255 19.8119 170.135 19.9918 170.056 20.1902C169.978 20.3886 169.941 20.6012 169.949 20.8144C169.941 21.0902 170.015 21.3623 170.162 21.5962C170.3 21.809 170.485 21.9877 170.703 22.1186C170.936 22.2537 171.191 22.3473 171.457 22.3952C171.727 22.4476 172.001 22.4746 172.276 22.4759C173.37 22.4759 174.207 22.1775 174.788 21.5808C175.369 20.9841 175.655 20.176 175.646 19.1567V18.6035Z" fill="#006EB3"/>
<path fill-rule="evenodd" clip-rule="evenodd" d="M151.516 17.7545V18.4057C151.516 18.6123 151.505 18.8187 151.483 19.0242H139.651C139.688 19.4634 139.828 19.8878 140.061 20.2631C140.292 20.6358 140.592 20.9616 140.946 21.2235C141.312 21.4996 141.721 21.7144 142.157 21.8593C142.606 22.0108 143.077 22.0874 143.55 22.086C144.3 22.1102 145.044 21.9478 145.715 21.6135C146.282 21.3196 146.775 20.9019 147.156 20.3918L150.894 22.7487C150.132 23.8553 149.084 24.7382 147.862 25.3053C146.489 25.9271 144.993 26.2337 143.485 26.2023C142.301 26.2078 141.125 26.0129 140.006 25.6261C138.949 25.2664 137.975 24.7017 137.139 23.9646C136.306 23.2181 135.647 22.3005 135.206 21.2754C134.719 20.1208 134.479 18.8777 134.503 17.6258C134.485 16.3914 134.719 15.1661 135.191 14.0242C135.619 12.9943 136.255 12.0626 137.059 11.2871C137.862 10.528 138.809 9.93575 139.844 9.54485C140.955 9.12484 142.134 8.91505 143.322 8.92634C144.455 8.91301 145.58 9.11783 146.635 9.52948C147.616 9.91449 148.5 10.5093 149.224 11.2717C149.969 12.0718 150.543 13.0141 150.911 14.0415C151.332 15.2338 151.537 16.491 151.516 17.7545ZM146.567 15.7031C146.581 14.904 146.294 14.1286 145.763 13.5287C145.228 12.9217 144.425 12.6182 143.353 12.6182C142.862 12.6121 142.373 12.6947 141.912 12.8621C141.493 13.0155 141.104 13.2411 140.764 13.5287C140.441 13.8077 140.174 14.1454 139.977 14.5237C139.785 14.8924 139.673 15.2977 139.651 15.7127L146.567 15.7031Z" fill="#006EB3"/>
<path fill-rule="evenodd" clip-rule="evenodd" d="M111.785 21.0833C112.277 19.9494 112.522 18.7252 112.506 17.4906C112.524 16.2607 112.278 15.0412 111.785 13.9128C111.329 12.8832 110.659 11.9614 109.818 11.2083C108.976 10.463 107.996 9.88756 106.933 9.5141C104.667 8.73294 102.202 8.73294 99.9356 9.5141C98.8701 9.88249 97.8892 10.4585 97.0504 11.2083C96.2185 11.9653 95.5544 12.8864 95.1006 13.9128C94.6079 15.0387 94.3622 16.256 94.3798 17.4837C94.3615 18.7207 94.6071 19.9475 95.1006 21.0833C95.5535 22.1197 96.2173 23.0517 97.0504 23.8205C97.8896 24.5818 98.8695 25.1741 99.9356 25.5646C102.194 26.3893 104.674 26.3893 106.933 25.5646C107.997 25.1691 108.975 24.5774 109.818 23.8205C110.66 23.0556 111.33 22.123 111.785 21.0833ZM107.064 15.9585C107.239 16.4521 107.328 16.9718 107.327 17.4952V17.4856C107.327 18.0068 107.244 18.5248 107.082 19.0203C106.92 19.5095 106.67 19.9652 106.343 20.3649C105.806 21.0144 105.062 21.4631 104.234 21.6376C103.406 21.812 102.543 21.702 101.787 21.3253C101.318 21.0964 100.904 20.7686 100.575 20.3649C100.248 19.9657 99.9977 19.5099 99.837 19.0203C99.5097 18.0256 99.5097 16.9532 99.837 15.9585C99.9906 15.4771 100.235 15.0292 100.558 14.6389C100.887 14.2493 101.294 13.9325 101.754 13.7092C102.279 13.4732 102.849 13.3511 103.426 13.3511C104.002 13.3511 104.572 13.4732 105.097 13.7092C105.56 13.9355 105.973 14.2516 106.311 14.6389C106.644 15.027 106.9 15.4749 107.064 15.9585Z" fill="#006EB3"/>
<path fill-rule="evenodd" clip-rule="evenodd" d="M132.221 20.7702C132.573 19.7173 132.75 18.6144 132.746 17.5048L132.748 17.4952C132.752 16.3919 132.569 15.2958 132.207 14.2528C131.865 13.259 131.341 12.3368 130.661 11.5329C129.99 10.7474 129.157 10.114 128.219 9.67547C127.213 9.20951 126.114 8.97573 125.005 8.99165C123.916 8.96498 122.838 9.21698 121.874 9.72349C121.07 10.1462 120.362 10.7287 119.793 11.4349H119.697V9.44689H114.581V33.4842H119.954V23.8801H120.019C120.558 24.6056 121.283 25.174 122.118 25.5262C123.013 25.9344 123.986 26.146 124.97 26.1466C126.107 26.1669 127.232 25.9215 128.255 25.4302C129.193 24.9696 130.024 24.3201 130.696 23.5228C131.375 22.7094 131.892 21.7753 132.221 20.7702ZM127.283 15.9585C127.447 16.4545 127.53 16.9732 127.529 17.4952V17.5048C127.528 18.0304 127.445 18.5527 127.283 19.053C127.129 19.5417 126.884 19.9976 126.562 20.3976C126.238 20.7957 125.83 21.1183 125.366 21.3426C124.845 21.5915 124.273 21.7145 123.695 21.7018C123.128 21.7124 122.566 21.5893 122.056 21.3426C121.586 21.1133 121.168 20.7918 120.827 20.3976C120.484 20.0009 120.218 19.5452 120.041 19.053C119.765 18.3168 119.692 17.5206 119.83 16.747C119.969 15.9735 120.313 15.2509 120.827 14.6543C121.169 14.2606 121.587 13.9392 122.056 13.7092C122.567 13.4641 123.128 13.3418 123.695 13.3519C124.272 13.3397 124.845 13.4621 125.366 13.7092C125.826 13.9325 126.234 14.2493 126.562 14.6389C126.885 15.0292 127.13 15.4771 127.283 15.9585Z" fill="#006EB3"/>
<path d="M163.472 13.7207C163.711 13.7425 163.949 13.7843 164.181 13.8456L164.407 9.12224C164.242 9.07139 164.071 9.03855 163.899 9.02428C163.687 9.00166 163.473 8.99076 163.259 8.99162C162.314 8.97363 161.386 9.24815 160.604 9.77724C159.848 10.2931 159.239 10.9936 158.834 11.8114H158.772V9.46607H153.593V25.6722H158.969V17.3549C158.978 16.9686 159.043 16.5856 159.163 16.2178C159.296 15.7803 159.513 15.3721 159.8 15.0154C160.125 14.6241 160.527 14.3031 160.981 14.0722C161.547 13.7981 162.172 13.6661 162.801 13.6881C163.018 13.6881 163.244 13.6996 163.472 13.7207Z" fill="#006EB3"/>
<path fill-rule="evenodd" clip-rule="evenodd" d="M212.755 17.4906C212.771 18.7252 212.526 19.9494 212.034 21.0833C211.579 22.123 210.909 23.0556 210.067 23.8205C209.224 24.577 208.245 25.1687 207.182 25.5646C204.923 26.3893 202.443 26.3893 200.184 25.5646C199.118 25.1741 198.138 24.5818 197.299 23.8205C196.47 23.0543 195.809 22.1264 195.357 21.0948C194.864 19.9591 194.618 18.7322 194.636 17.4952C194.617 16.2637 194.863 15.0423 195.357 13.9128C195.811 12.8864 196.475 11.9653 197.307 11.2083C198.146 10.4585 199.126 9.88249 200.192 9.5141C202.458 8.73294 204.923 8.73294 207.189 9.5141C208.252 9.88783 209.232 10.4632 210.074 11.2083C210.912 11.9621 211.58 12.8839 212.034 13.9128C212.527 15.0412 212.772 16.2607 212.755 17.4906ZM207.576 17.4864C207.576 16.966 207.487 16.4494 207.313 15.9585C207.149 15.4749 206.893 15.027 206.559 14.6389C206.221 14.2516 205.809 13.9355 205.346 13.7092C204.82 13.4732 204.251 13.3511 203.674 13.3511C203.098 13.3511 202.528 13.4732 202.003 13.7092C201.543 13.9325 201.135 14.2493 200.806 14.6389C200.484 15.0292 200.239 15.4771 200.086 15.9585C199.758 16.9532 199.758 18.0256 200.086 19.0203C200.246 19.5099 200.497 19.9657 200.824 20.3649C201.153 20.7686 201.566 21.0964 202.036 21.3253C202.561 21.5616 203.131 21.6838 203.708 21.6838C204.285 21.6838 204.855 21.5616 205.381 21.3253C205.849 21.0959 206.263 20.7682 206.592 20.3649C206.919 19.9657 207.17 19.5099 207.33 19.0203C207.494 18.5252 207.577 18.0074 207.576 17.4864Z" fill="#006EB3"/>
<path d="M224.579 13.715C224.818 13.739 225.053 13.7827 225.285 13.8456L225.518 9.12224C225.353 9.07139 225.183 9.03855 225.01 9.02428C224.798 9.00166 224.584 8.99076 224.371 8.99162C223.425 8.97363 222.497 9.24815 221.715 9.77724C220.96 10.2931 220.35 10.9936 219.945 11.8114H219.88V9.46607H214.701V25.6664H220.077V17.3492C220.086 16.9629 220.151 16.5799 220.27 16.212C220.403 15.7745 220.62 15.3664 220.908 15.0096C221.232 14.6183 221.634 14.2974 222.088 14.0665C222.654 13.7921 223.279 13.6602 223.909 13.6823C224.125 13.6823 224.349 13.6938 224.579 13.715Z" fill="#006EB3"/>
<path d="M237.047 14.2374C236.59 13.8115 236.068 13.4596 235.501 13.1944C234.919 12.9134 234.28 12.7682 233.633 12.7699C233.152 12.7654 232.677 12.8657 232.239 13.0638C232.041 13.1456 231.873 13.2868 231.758 13.4678C231.644 13.6489 231.589 13.8608 231.602 14.0742C231.602 14.5288 231.836 14.8547 232.305 15.0519C233.047 15.3254 233.809 15.5431 234.583 15.703C235.215 15.8394 235.834 16.0244 236.437 16.2562C237.043 16.4864 237.611 16.8049 238.124 17.2013C238.624 17.5908 239.037 18.0795 239.337 18.6362C239.659 19.26 239.819 19.9539 239.803 20.6549C239.84 21.5044 239.652 22.3488 239.258 23.1035C238.864 23.8582 238.278 24.4969 237.557 24.9557C236.871 25.3994 236.11 25.7193 235.312 25.9007C234.496 26.0951 233.66 26.1937 232.821 26.1946C231.489 26.1951 230.166 25.9804 228.904 25.5588C227.709 25.1847 226.616 24.5441 225.708 23.686L228.724 20.5243C229.228 21.0638 229.829 21.5059 230.494 21.8286C231.185 22.1741 231.949 22.3524 232.722 22.3491C233.173 22.3468 233.617 22.241 234.019 22.0399C234.224 21.9439 234.395 21.788 234.509 21.5932C234.623 21.3983 234.675 21.1735 234.657 20.9488C234.657 20.4494 234.395 20.08 233.87 19.8405C233.076 19.5174 232.253 19.2667 231.412 19.0914C230.833 18.9576 230.263 18.7837 229.708 18.5708C229.155 18.3622 228.64 18.065 228.183 17.6911C227.728 17.3126 227.355 16.8468 227.086 16.3215C226.786 15.7136 226.64 15.0427 226.659 14.3661C226.631 13.4924 226.847 12.6281 227.283 11.869C227.686 11.1976 228.234 10.6241 228.889 10.1902C229.556 9.7505 230.293 9.4258 231.068 9.22981C231.843 9.02592 232.642 8.92198 233.443 8.92056C234.663 8.9216 235.875 9.11613 237.034 9.49681C238.139 9.8391 239.152 10.4233 240 11.2064L237.047 14.2374Z" fill="#006EB3"/>
</svg>
