<?xml version="1.0" encoding="UTF-8" standalone="no"?>
<svg
   width="100"
   height="100"
   viewBox="0 0 100 100"
   fill="none"
   version="1.1"
   id="svg15"
   sodipodi:docname="coop-logo.svg"
   xmlns:inkscape="http://www.inkscape.org/namespaces/inkscape"
   xmlns:sodipodi="http://sodipodi.sourceforge.net/DTD/sodipodi-0.dtd"
   xmlns="http://www.w3.org/2000/svg"
   xmlns:svg="http://www.w3.org/2000/svg">
  <defs
     id="defs15" />
  <sodipodi:namedview
     id="namedview15"
     pagecolor="#ffffff"
     bordercolor="#000000"
     borderopacity="0.25"
     inkscape:showpageshadow="2"
     inkscape:pageopacity="0.0"
     inkscape:pagecheckerboard="0"
     inkscape:deskcolor="#d1d1d1">
    <inkscape:page
       x="0"
       y="0"
       width="100"
       height="100"
       id="page2"
       margin="0"
       bleed="0" />
  </sodipodi:namedview>
  <g
     id="g15"
     transform="matrix(2.613163,0,0,2.613163,4.7429999e-7,4.2219573)">
    <path
       d="M 13.8439,33.2883 13.5946,33.0405 13.3453,32.7947 28.7043,17.5279 13.3453,2.26105 13.5946,2.01326 13.8439,1.76739 C 14.4069,1.20711 15.0755,0.762626 15.8114,0.459364 16.5474,0.156102 17.3362,0 18.1329,0 c 0.7967,0 1.5855,0.156102 2.3215,0.459364 0.7359,0.303262 1.4045,0.747746 1.9675,1.308026 L 38.2678,17.5183 22.4219,33.2691 c -0.563,0.5603 -1.2316,1.0048 -1.9675,1.308 -0.736,0.3033 -1.5248,0.4594 -2.3215,0.4594 -0.7967,0 -1.5855,-0.1561 -2.3215,-0.4594 -0.7359,-0.3032 -1.4045,-0.7477 -1.9675,-1.308 z"
       fill="#006eb3"
       id="path1" />
    <path
       d="M 8.21084,28.2307 5.79916,25.8355 14.1569,17.5278 5.79916,9.22023 8.21084,6.82303 C 8.84103,6.19678 9.69565,5.84497 10.5868,5.84497 c 0.8911,0 1.7457,0.35181 2.3759,0.97806 L 23.7302,17.5355 12.9607,28.2307 c -0.3117,0.3106 -0.6821,0.557 -1.0898,0.7251 -0.4077,0.1681 -0.8447,0.2546 -1.2861,0.2546 -0.4413,0 -0.87839,-0.0865 -1.28609,-0.2546 C 8.89102,28.7877 8.52068,28.5413 8.2089,28.2307 Z"
       fill="#006eb3"
       id="path2" />
    <path
       d="M 9.60411,17.5278 6.70547,14.6235 3.80682,11.7423 1.41447,14.1203 C 0.508786,15.0208 0,16.242 0,17.5154 c 0,1.2733 0.508786,2.4945 1.41447,3.395 l 2.39235,2.3799 z"
       fill="#006eb3"
       id="path3" />
  </g>
</svg>
