<?xml version="1.0" encoding="UTF-8" standalone="no"?>
<!-- Created with Inkscape (http://www.inkscape.org/) -->

<svg
   version="1.1"
   id="svg1"
   width="100"
   height="100"
   viewBox="0 0 100 100"
   sodipodi:docname="cpp-logo.png"
   xmlns:inkscape="http://www.inkscape.org/namespaces/inkscape"
   xmlns:sodipodi="http://sodipodi.sourceforge.net/DTD/sodipodi-0.dtd"
   xmlns="http://www.w3.org/2000/svg"
   xmlns:svg="http://www.w3.org/2000/svg">
  <defs
     id="defs1" />
  <sodipodi:namedview
     id="namedview1"
     pagecolor="#ffffff"
     bordercolor="#000000"
     borderopacity="0.25"
     inkscape:showpageshadow="2"
     inkscape:pageopacity="0.0"
     inkscape:pagecheckerboard="0"
     inkscape:deskcolor="#d1d1d1">
    <inkscape:page
       x="0"
       y="0"
       width="100"
       height="100"
       id="page2"
       margin="0"
       bleed="0" />
  </sodipodi:namedview>
  <g
     inkscape:groupmode="layer"
     inkscape:label="Image"
     id="g1">
    <path
       style="fill:#db2a30;stroke:none;stroke-width:0.558697"
       d="m 58.895533,20.113081 c -0.511381,4.04634 1.052344,15.660115 -3.471595,17.674819 -6.429892,2.863504 -14.351717,-10.728791 -18.317577,-13.763942 0.228271,1.695169 0.719581,3.336068 0.949267,5.028271 1.582528,11.659285 -15.095629,-0.590913 -19.386258,-0.558697 3.410632,6.149321 16.040534,20.66263 2.234787,20.671778 1.586703,7.864064 14.625569,14.420582 21.230475,17.833029 3.035867,1.568491 8.447235,3.174057 9.617258,6.752218 0.663746,2.029867 -0.796316,4.193455 -1.236808,6.143072 3.348416,0.728071 6.719802,-0.576855 10.056541,0.380227 C 75.510072,84.558657 75.373733,100 75.373733,100 l 5.956897,-4.47574 -2.280203,-10.043664 -2.2766,-27.376139 -0.512699,-2.989938 -0.604694,29.80738 C 74.522726,84.249524 74.361397,83.40977 73.455146,82.576536 73.100894,65.321634 72.829697,63.712928 72.672244,60.214666 l -0.78869,-0.59799 -0.92438,19.984218 C 70.165412,79.123812 70.003964,78.972427 69.090719,78.271207 69.005463,71.038124 68.166093,59.50002 68.156674,56.086249 l -0.972691,-2.94394 -1.025393,21.723049 c 0,0 -0.72991,-1.013732 -2.16538,-1.912312 -0.1015,-3.06054 -0.06946,-14.055442 -0.168112,-16.353142 L 62.760412,56.8759 62.247713,72.071876 C 57.691122,66.094083 61.111374,57.243166 59.454229,50.282703 h -1.117393 l -5.249853,6.863863 -0.337114,8.779645 -2.793485,-5.586967 h -0.558695 l -0.558697,3.35218 -5.586968,-12.291327 c 1.556796,0.936336 2.266684,2.879282 3.97123,3.573765 8.07933,3.291746 8.935602,-9.442395 13.37898,-12.530154 C 65.649042,38.936616 71.077853,39.62031 76.773827,39.667466 77.050181,26.277798 77.564953,12.962657 81.243401,0 75.336882,2.75443 71.821556,9.829579 69.545258,15.643508 c -0.86836,2.21789 -2.273728,7.920883 -5.113197,8.346826 -2.11774,0.317679 -3.82671,-2.942687 -5.536528,-3.877253 m 11.784796,8.800343 c 3.93489,-0.978845 4.58252,7.703405 1.013068,8.535636 -4.044753,0.943048 -4.502453,-7.667617 -1.013068,-8.535636 m -7.843745,3.352172 c 3.052664,-0.800347 3.696377,5.683756 0.968233,6.42329 -3.386434,0.917984 -4.184649,-5.58001 -0.968233,-6.42329 M 49.330439,48.86441 c 2.232161,0.721453 1.470824,5.360178 -0.83244,4.492846 -1.867106,-0.703086 -1.38626,-5.20995 0.83244,-4.492846 z"
       id="path36865"
       sodipodi:nodetypes="cscsccsscsccccccccccccccccccccccccccssccssccsccscsss" />
  </g>
</svg>
