<?xml version="1.0" encoding="UTF-8" standalone="no"?>
<svg
   id="Layer_1"
   data-name="Layer 1"
   viewBox="0 0 100 99.999997"
   version="1.1"
   sodipodi:docname="equitable-logo.svg"
   width="100"
   height="100"
   xmlns:inkscape="http://www.inkscape.org/namespaces/inkscape"
   xmlns:sodipodi="http://sodipodi.sourceforge.net/DTD/sodipodi-0.dtd"
   xmlns="http://www.w3.org/2000/svg"
   xmlns:svg="http://www.w3.org/2000/svg">
  <defs
     id="defs1" />
  <sodipodi:namedview
     id="namedview1"
     pagecolor="#ffffff"
     bordercolor="#000000"
     borderopacity="0.25"
     inkscape:showpageshadow="2"
     inkscape:pageopacity="0.0"
     inkscape:pagecheckerboard="0"
     inkscape:deskcolor="#d1d1d1">
    <inkscape:page
       x="0"
       y="0"
       width="100"
       height="100"
       id="page2"
       margin="0"
       bleed="0" />
  </sodipodi:namedview>
  <path
     id="fullLogo"
     d="m 77.107454,10.340846 c -8.00347,-5.1550205 -17.33032,-8.0747482 -27.10745,-8.0747482 -9.77713,0 -19.10398,2.9197277 -27.10741,8.0747482 -25.2881395,15.942656 -30.8649895,51.565316 -10.48041,73.779287 2.32922,2.478736 6.132,-0.575322 4.22981,-3.374065 C 11.845264,74.175543 8.8034445,66.408683 8.0856745,58.344824 5.5437745,33.667306 25.192614,11.33501 49.995824,11.33501 h 0.008 c 24.80321,0 44.45206,22.332255 41.91015,47.009814 -0.7178,8.063859 -3.75962,15.830719 -8.55631,22.401244 -1.90223,2.798743 1.90054,5.852801 4.2298,3.374065 C 107.97248,61.906162 102.39563,26.283502 77.107494,10.340846 Z m 2.96116,82.993012 c -3.46373,-1.637244 -6.95198,-3.338119 -10.38566,-5.157845 -0.0149,-0.008 -0.0285,-0.0161 -0.0433,-0.02404 -8.58452,-4.55202 -16.82267,-9.851444 -23.48777,-16.758106 10e-4,-8.19e-4 0.002,-0.002 0.003,-0.0029 v -8.2e-5 c -1.64286,-1.701489 -3.19007,-3.500907 -4.62293,-5.412017 -2.68414,-3.774278 -4.54764,-7.681046 -5.14405,-12.065367 -1.05451,-8.431727 2.709,-19.08425 13.60869,-19.08425 10.8997,0 14.66288,10.652482 13.60837,19.08425 -0.59641,4.384321 -2.45991,8.291048 -5.14405,12.065367 -1.18053,1.57481 -2.43956,3.073177 -3.76515,4.504159 -0.2814,0.304897 -1.16145,1.218853 -1.31589,1.375338 2.02116,1.757861 4.24684,3.469135 6.69675,5.15977 0.46588,-0.430675 0.9269,-0.867243 1.3789,-1.313801 8.2e-4,8.19e-4 0.002,0.0016 0.003,0.0025 5.65387,-5.587495 10.07196,-12.46705 11.16849,-20.582333 1.98144,-14.510488 -6.55399,-29.373615 -22.63065,-29.376726 -16.0767,0.0032 -24.61242,14.866279 -22.63064,29.376726 1.406,10.406504 8.27369,18.780867 16.20526,25.004652 -7.34646,5.216351 -15.56263,9.383964 -23.64671,13.204955 -1.04936,0.470798 -1.60376,1.666113 -1.24838,2.790719 0.38253,1.211854 1.67516,1.884253 2.88735,1.501767 9.8742,-3.155022 19.61858,-7.297904 28.43636,-12.953855 8.81777,5.655992 18.55535,9.798833 28.42989,12.953855 1.21185,0.382486 2.50449,-0.289913 2.88701,-1.501767 0.35538,-1.124606 -0.19902,-2.319921 -1.24837,-2.790719 z"
     style="fill:#00a4ac;stroke-width:0.409424" />
</svg>
