<?xml version="1.0" encoding="UTF-8"?>
<svg id="Layer_1" xmlns="http://www.w3.org/2000/svg" baseProfile="tiny" version="1.2" width="144" height="55" viewBox="0 0 144 55">
  <!-- Generator: Adobe Illustrator 29.1.0, SVG Export Plug-In . SVG Version: 2.1.0 Build 142)  -->
  <polygon points="2.8 22.4 10.6 22.4 10.6 19.8 2.8 19.8 2.8 12.6 11.9 12.6 11.9 10 0 10 0 31.9 2.8 31.9 2.8 22.4" fill="#5e2750"/>
  <path d="M20.7,32.3c4.7,0,8.4-3.7,8.4-8.4s-3.7-8.2-8.4-8.2-8.4,3.6-8.4,8.2,3.7,8.4,8.4,8.4ZM20.7,18.3c3.1,0,5.5,2.5,5.5,5.6s-2.4,5.8-5.5,5.8-5.5-2.5-5.5-5.8,2.4-5.6,5.5-5.6Z" fill="#5e2750"/>
  <path d="M49.3,32.3c3.5,0,5.7-2.1,5.8-2.2l.2-.2-1.3-2.2-.3.3s-1.8,1.7-4.3,1.7-5.2-1.6-5.5-5.2h11.5v-.3s0-.7,0-1.1c0-3.7-2.1-7.3-6.7-7.3s-7.8,3.4-7.8,8.3,3.5,8.3,8.3,8.3ZM48.7,18.1c1.7,0,3.6,1,3.9,3.9h-8.6c.5-2.4,2.3-3.9,4.7-3.9Z" fill="#5e2750"/>
  <path d="M63.2,29.7c-2.6,0-4.2-1.7-4.2-1.7l-.3-.3-1.6,2.1.2.2c0,0,2.1,2.3,5.9,2.3s5.5-1.9,5.5-4.6-2.7-4.1-4.9-4.9c-1.7-.7-3.2-1.3-3.2-2.5,0-1.8,2-2,2.6-2,2.3,0,3.5,1.2,3.5,1.3l.3.4,1.3-2.2-.2-.2c0,0-1.6-1.8-4.9-1.8s-5.5,1.9-5.5,4.5,2.7,4,4.9,4.9c1.7.7,3.2,1.3,3.2,2.5s-1.4,2-2.7,2Z" fill="#5e2750"/>
  <path d="M89.3,32.3c3.5,0,5.7-2.1,5.8-2.2l.2-.2-1.3-2.2-.3.3s-1.8,1.7-4.3,1.7-5.2-1.6-5.5-5.2h11.5v-.3s0-.7,0-1.1c0-3.7-2.1-7.3-6.7-7.3s-7.8,3.4-7.8,8.3,3.5,8.3,8.3,8.3ZM88.8,18.1c1.7,0,3.6,1,3.9,3.9h-8.6c.5-2.4,2.3-3.9,4.7-3.9Z" fill="#5e2750"/>
  <path d="M114.1,29.7c-2.6,0-4.2-1.7-4.2-1.7l-.3-.3-1.6,2.1.2.2c0,0,2.1,2.3,5.9,2.3s5.5-1.9,5.5-4.6-2.7-4.1-4.9-4.9c-1.7-.7-3.2-1.3-3.2-2.5,0-1.8,2-2,2.6-2,2.3,0,3.5,1.2,3.5,1.3l.3.4,1.3-2.2-.2-.2c0,0-1.6-1.8-4.9-1.8s-5.5,1.9-5.5,4.5,2.7,4,4.9,4.9c1.7.7,3.2,1.3,3.2,2.5s-1.4,2-2.7,2Z" fill="#5e2750"/>
  <path d="M127.4,6c-.5-.3-.9-.4-1.5-.4-1.1,0-2.3.6-3.6,1.7l-.4.3h.5c1.5-.4,2.7-.1,3.6.7,1.4,1.2,2.5,4,3,8,.2,1.5.2,2.7.3,3.4v.2c0,.1,0,.2,0,.3h0c0,.2,0,.3.2.3s.2,0,.2-.2c0,0,0-.2,0-.4v-.5c0-.4,0-.8.1-1.3v-.3c.1-2.3.3-10.1-2.4-11.7" fill="#5bbbb7"/>
  <path d="M132.9,12.5c0,0,.1,0,.2-.1,1.4-5.6,3.1-9.2,4.8-9.9.7-.3,1.3-.2,2,.2l.4.3-.2-.4c-.4-.7-1.7-2.3-3.1-2.3s-.7.1-1.1.4c-1.4,1-2.5,4.6-2.9,9.9,0,.2,0,.3,0,.4,0,.2,0,.3,0,.6,0,.3,0,.7,0,.9,0,0,0,0,0,.1,0,0,0,0,.1,0" fill="#5bbbb7"/>
  <path d="M143.7,12.4c-1.1-1.3-2.4-2.5-3.9-2.5-3,0-5.4,3.1-7.1,9.4-1.5,5.6-2.1,10.7-2.2,12.1,0,.3,0,.6,0,.8v.2c0,0,0,0,0,.1,0,0,0,0,.1,0,0,0,.2,0,.2-.1,0-.2,0-.5.2-.8v-.2c.9-4.6,2.2-9.2,3.7-12.6,1.9-4.2,4.4-6.5,7.3-6.5s1.1,0,1.7.2h.4c0,.1-.3-.2-.3-.2Z" fill="#5bbbb7"/>
  <path d="M79.2,29.3h-.5c0,.1-.2.2-.6.2-1.1,0-3-.5-3-3.6v-7.1h3.8v-2.5h-3.8v-4.4h-2.8v4.4h-2v2.5h2v7.3c0,5.4,3.9,6,5.6,6s.9,0,.9,0h.3c0,0,.5-.2.8-.3.2,0,.5-.2.5-.2l-1.3-2.2Z" fill="#5e2750"/>
  <path d="M107.6,16.6s0,0-.2-.1c-.3-.2-1.1-.4-1.1-.4h-.3c0,0-.4-.2-.9-.2-1.8,0-3.4,1-4.4,2.6v-2.5h-2.8v15.8h2.8v-6.7c0-1,.1-2,.4-2.8.7-2.2,2.2-3.6,4-3.6s.7,0,.7,0h.4c0,0,1.3-2.2,1.3-2.2Z" fill="#5e2750"/>
  <path d="M41.1,16.6s0,0-.2-.1c-.3-.2-1.1-.4-1.1-.4h-.3c0,0-.4-.2-.9-.2-1.8,0-3.4,1-4.4,2.6v-2.5h-2.8v15.8h2.8v-6.7c0-1,.1-2,.4-2.8.7-2.2,2.2-3.6,4-3.6s.7,0,.7,0h.4c0,0,1.3-2.2,1.3-2.2Z" fill="#5e2750"/>
  <g>
    <path d="M0,38.7h8.3v1.4H1.6v5.9h5.8v1.4H1.6v7.1H0v-15.8Z" fill="#5e2750"/>
    <path d="M10.5,38.7h1.6v1.9h-1.6v-1.9ZM10.5,43.2h1.5v11.3h-1.5v-11.3Z" fill="#5e2750"/>
    <path d="M15.2,43.2h1.5v1.7c0,.5,0,.9,0,.9h0c.4-1,1.8-2.9,4.5-2.9s3.8,1.6,3.8,4.4v7.2h-1.5v-6.8c0-1.8-.3-3.4-2.5-3.4s-3.6,1.3-4.1,3.2c-.1.5-.2,1-.2,1.5v5.4h-1.5v-11.3Z" fill="#5e2750"/>
    <path d="M34.2,47.6h.6v-.3c0-2.2-1.2-2.9-2.8-2.9s-3.2,1.1-3.2,1.1l-.7-1.2s1.5-1.3,4-1.3,4.2,1.5,4.2,4.3v7.2h-1.5v-1.2c0-.6,0-.9,0-.9h0s-.9,2.5-3.8,2.5-3.8-1.1-3.8-3.4c0-3.8,5-3.9,6.9-3.9ZM31.3,53.5c2.2,0,3.5-2.3,3.5-4.2v-.5h-.7c-1.8,0-5.3,0-5.3,2.6s.8,2.1,2.5,2.1Z" fill="#5e2750"/>
    <path d="M39.4,43.2h1.5v1.7c0,.5,0,.9,0,.9h0c.4-1,1.8-2.9,4.5-2.9s3.8,1.6,3.8,4.4v7.2h-1.5v-6.8c0-1.8-.3-3.4-2.5-3.4s-3.6,1.3-4.1,3.2c-.1.5-.2,1-.2,1.5v5.4h-1.5v-11.3Z" fill="#5e2750"/>
    <path d="M57.6,43c2.8,0,4.1,1.6,4.1,1.6l-.8,1.1s-1.3-1.4-3.3-1.4-4.4,1.8-4.4,4.5,2,4.5,4.5,4.5,3.6-1.6,3.6-1.6l.7,1.2s-1.5,1.8-4.4,1.8-5.9-2.4-5.9-5.9,2.6-5.9,5.9-5.9Z" fill="#5e2750"/>
    <path d="M64,38.7h1.6v1.9h-1.6v-1.9ZM64.1,43.2h1.5v11.3h-1.5v-11.3Z" fill="#5e2750"/>
    <path d="M74.8,47.6h.6v-.3c0-2.2-1.2-2.9-2.8-2.9s-3.2,1.1-3.2,1.1l-.7-1.2s1.5-1.3,4-1.3,4.2,1.5,4.2,4.3v7.2h-1.5v-1.2c0-.6,0-.9,0-.9h0s-.9,2.5-3.8,2.5-3.8-1.1-3.8-3.4c0-3.8,5-3.9,6.9-3.9ZM71.9,53.5c2.2,0,3.5-2.3,3.5-4.2v-.5h-.7c-1.8,0-5.3,0-5.3,2.6s.8,2.1,2.5,2.1Z" fill="#5e2750"/>
    <path d="M80,38.7h1.5v12.8c0,1.5.7,1.7,1.3,1.7s.4,0,.4,0v1.4s-.3,0-.6,0c-.9,0-2.6-.3-2.6-2.8v-13.1Z" fill="#5e2750"/>
  </g>
</svg>