<?xml version="1.0" encoding="UTF-8" standalone="no"?>
<svg
   id="Layer_1"
   version="1.2"
   width="100"
   height="100"
   viewBox="0 0 100 100"
   sodipodi:docname="ff-logo.svg"
   xmlns:inkscape="http://www.inkscape.org/namespaces/inkscape"
   xmlns:sodipodi="http://sodipodi.sourceforge.net/DTD/sodipodi-0.dtd"
   xmlns="http://www.w3.org/2000/svg"
   xmlns:svg="http://www.w3.org/2000/svg">
  <defs
     id="defs20" />
  <sodipodi:namedview
     id="namedview20"
     pagecolor="#ffffff"
     bordercolor="#000000"
     borderopacity="0.25"
     inkscape:showpageshadow="2"
     inkscape:pageopacity="0.0"
     inkscape:pagecheckerboard="0"
     inkscape:deskcolor="#d1d1d1">
    <inkscape:page
       x="0"
       y="0"
       width="100"
       height="100"
       id="page2"
       margin="0"
       bleed="0" />
  </sodipodi:namedview>
  <!-- Generator: Adobe Illustrator 29.1.0, SVG Export Plug-In . SVG Version: 2.1.0 Build 142)  -->
  <g
     id="g21"
     transform="translate(16.467972,-13.107933)">
    <rect
       style="fill:#5e2750;fill-opacity:1"
       id="rect20"
       width="100"
       height="100"
       x="13.107933"
       y="-83.532013"
       transform="rotate(90,7.7153821e-6,7.5978878e-6)" />
    <g
       id="g20"
       transform="matrix(2.7950311,0,0,2.7950311,-338.20711,17.269423)">
      <path
         d="m 127.4,6 c -0.5,-0.3 -0.9,-0.4 -1.5,-0.4 -1.1,0 -2.3,0.6 -3.6,1.7 l -0.4,0.3 h 0.5 c 1.5,-0.4 2.7,-0.1 3.6,0.7 1.4,1.2 2.5,4 3,8 0.2,1.5 0.2,2.7 0.3,3.4 v 0.2 c 0,0.1 0,0.2 0,0.3 v 0 c 0,0.2 0,0.3 0.2,0.3 0.2,0 0.2,0 0.2,-0.2 0,0 0,-0.2 0,-0.4 v -0.5 c 0,-0.4 0,-0.8 0.1,-1.3 v -0.3 c 0.1,-2.3 0.3,-10.1 -2.4,-11.7"
         fill="#5bbbb7"
         id="path6" />
      <path
         d="m 132.9,12.5 c 0,0 0.1,0 0.2,-0.1 1.4,-5.6 3.1,-9.2 4.8,-9.9 0.7,-0.3 1.3,-0.2 2,0.2 l 0.4,0.3 -0.2,-0.4 c -0.4,-0.7 -1.7,-2.3 -3.1,-2.3 -1.4,0 -0.7,0.1 -1.1,0.4 -1.4,1 -2.5,4.6 -2.9,9.9 0,0.2 0,0.3 0,0.4 0,0.2 0,0.3 0,0.6 0,0.3 0,0.7 0,0.9 0,0 0,0 0,0.1 0,0 0,0 0.1,0"
         fill="#5bbbb7"
         id="path7" />
      <path
         d="m 143.7,12.4 c -1.1,-1.3 -2.4,-2.5 -3.9,-2.5 -3,0 -5.4,3.1 -7.1,9.4 -1.5,5.6 -2.1,10.7 -2.2,12.1 0,0.3 0,0.6 0,0.8 v 0.2 c 0,0 0,0 0,0.1 0,0 0,0 0.1,0 0,0 0.2,0 0.2,-0.1 0,-0.2 0,-0.5 0.2,-0.8 v -0.2 c 0.9,-4.6 2.2,-9.2 3.7,-12.6 1.9,-4.2 4.4,-6.5 7.3,-6.5 2.9,0 1.1,0 1.7,0.2 h 0.4 c 0,0.1 -0.3,-0.2 -0.3,-0.2 z"
         fill="#5bbbb7"
         id="path8" />
    </g>
  </g>
</svg>
