<?xml version="1.0" encoding="UTF-8" standalone="no"?>
<svg
   id="Layer_1"
   data-name="Layer 1"
   viewBox="0 0 100 100"
   version="1.1"
   sodipodi:docname="sli-logo.svg"
   inkscape:version="1.4.1 (93de688d07, 2025-03-30)"
   width="100"
   height="100"
   xmlns:inkscape="http://www.inkscape.org/namespaces/inkscape"
   xmlns:sodipodi="http://sodipodi.sourceforge.net/DTD/sodipodi-0.dtd"
   xmlns="http://www.w3.org/2000/svg"
   xmlns:svg="http://www.w3.org/2000/svg"
   xmlns:rdf="http://www.w3.org/1999/02/22-rdf-syntax-ns#"
   xmlns:cc="http://creativecommons.org/ns#"
   xmlns:dc="http://purl.org/dc/elements/1.1/">
  <sodipodi:namedview
     id="namedview2"
     pagecolor="#ffffff"
     bordercolor="#000000"
     borderopacity="0.25"
     inkscape:showpageshadow="2"
     inkscape:pageopacity="0.0"
     inkscape:pagecheckerboard="0"
     inkscape:deskcolor="#d1d1d1"
     inkscape:zoom="2.3302646"
     inkscape:cx="65.872348"
     inkscape:cy="32.399754"
     inkscape:window-width="1536"
     inkscape:window-height="792"
     inkscape:window-x="0"
     inkscape:window-y="0"
     inkscape:window-maximized="1"
     inkscape:current-layer="Layer_1" />
  <defs
     id="defs1">
    <style
       id="style1">.cls-1{fill:none}.cls-2{fill:none}.cls-3,.cls-6{fill:#169cbe}.cls-3,.cls-5{fill-rule:evenodd}.cls-4,.cls-5{fill:#bb0036}</style>
  </defs>
  <title
     id="title1">SPI ENGLSIH</title>
  <path
     class="cls-1"
     d="m -20.04,-86.939974 h 347.6 V 133.06003 h -347.6 z"
     id="path1" />
  <path
     class="cls-2"
     d="M 78.36,2.0600256 H 219.15 V 55.060026 H 78.36 Z"
     id="path2" />
  <g
     id="g1"
     transform="matrix(1.2353305,0,0,1.2353305,-1.9875e-6,19.283491)">
    <path
       class="cls-3"
       d="m 4.88,42.760026 a 12.73,12.73 0 0 0 2.17,1.43 c 7.74,-2.1 18.16,-3.47 29.75,-3.72 a 14,14 0 0 0 2.86,-9 10.63,10.63 0 0 0 -3.19,-8.09 q -3.36,-2.86 -11.93,-5.06 c -0.2,0 -2.31,-0.44 -3.19,-0.67 q -8.75,-1.84 -8.74,-4.55 a 3.39,3.39 0 0 1 1.51,-3 10,10 0 0 1 5,-1 9.08,9.08 0 0 1 5.55,1.51 l 1.34,1.35 a 5.35,5.35 0 0 0 4.88,2.87 h 7.22 a 14.8,14.8 0 0 0 -5.21,-10.95 q -5.2,-3.89 -14,-3.88 -8.05,0 -13.1,3.88 a 13.41,13.41 0 0 0 -4.88,10.61 10.38,10.38 0 0 0 3.36,8.09 q 3,3 11.94,5.22 a 31.88,31.88 0 0 0 4.53,1 q 7.06,1.52 7.06,4.55 a 3.57,3.57 0 0 1 -2,3.2 10.75,10.75 0 0 1 -5.21,1.18 11.86,11.86 0 0 1 -6.65,-1.67 6.19,6.19 0 0 1 -2.52,-5 H 0 v 0.51 q 0,7.32 4.88,11.19 z"
       id="s" />
    <path
       class="cls-3"
       d="m 76.32,44.900026 v -23.84 a 5.45,5.45 0 0 0 -1.72,-4 5.69,5.69 0 0 0 -4.12,-1.68 h -6.22 v 26.8 a 84.25,84.25 0 0 1 12.06,2.72 z"
       id="i_copy"
       data-name="i copy" />
    <circle
       class="cls-4"
       cx="70.299995"
       cy="6.5600262"
       r="6.0300002"
       id="Ellipse_2"
       data-name="Ellipse 2" />
    <path
       class="cls-3"
       d="m 51.88,2.460026 a 5.68,5.68 0 0 0 -4,-1.6 H 41.8 v 36.54 h 11.76 v -31 a 5.26,5.26 0 0 0 -1.68,-3.94 z"
       id="l" />
    <path
       class="cls-3"
       d="m 61.99,41.840026 v -1.06 a 5.93,5.93 0 0 0 -1.56,-4.12 5,5 0 0 0 -3.87,-1.72 l -14.72,0.05 -0.06,5.45 a 157.2,157.2 0 0 1 20.21,1.4 z"
       id="l_copy"
       data-name="l copy" />
    <path
       class="cls-5"
       d="m 0.64,49.150026 c 8.76,-2 23,-3.31 39,-3.31 17.54,0 32.88,1.56 41.31,3.89 -7.73,-4 -23.07,-6.77 -40.74,-6.77 -16.82,0 -31.52,2.48 -39.57,6.19 z"
       id="Ellipse_1"
       data-name="Ellipse 1" />
  </g>
  <metadata
     id="metadata2">
    <rdf:RDF>
      <cc:Work
         rdf:about="">
        <dc:title>SPI ENGLSIH</dc:title>
      </cc:Work>
    </rdf:RDF>
  </metadata>
</svg>
