<?xml version="1.0" encoding="utf-8"?>
<!-- Generator: Adobe Illustrator 24.0.1, SVG Export Plug-In . SVG Version: 6.00 Build 0)  -->
<svg version="1.1" id="Layer_1" xmlns="http://www.w3.org/2000/svg" xmlns:xlink="http://www.w3.org/1999/xlink" x="0px" y="0px"
	 viewBox="0 0 127 31" style="enable-background:new 0 0 127 31;" xml:space="preserve">
<style type="text/css">
	.st0{fill:#003946;}
	.st1{fill:#FEBE10;}
</style>
<g>
	<g>
		<path class="st0" d="M47.919,13.668c-0.345-1.352-0.849-4.031-3.739-4.031c-1.512,0-2.652,1.008-2.652,2.652
			c0,4.084,8.486,3.819,8.486,9.493c0,3.765-3.342,5.144-6.524,5.144c-2.307,0-3.819-0.61-4.668-1.061
			c-0.637-1.67-0.769-2.864-0.769-4.985l1.247-0.265c0.371,1.591,1.246,5.303,4.641,5.303c1.671,0,2.785-1.167,2.785-2.943
			c0-4.481-8.221-4.137-8.221-9.573c0-3.367,2.493-4.773,5.914-4.773c1.989,0,3.182,0.424,4.164,0.981
			c0.212,1.299,0.292,2.705,0.292,4.057H47.919z"/>
		<path class="st0" d="M60.717,25.574c-0.796,0.477-2.042,1.352-4.031,1.352c-4.111,0-4.296-2.386-4.296-5.33v-3.845
			c0-0.928,0-2.121-0.795-2.121c-0.398,0-0.742,0.132-0.849,0.159V15.02c1.989-0.663,3.448-0.875,4.827-0.954v7.451
			c0,2.095,0.398,3.871,2.997,3.871c1.008,0,1.618-0.477,1.989-0.663v-6.974c0-0.928,0-2.121-0.795-2.121
			c-0.398,0-0.742,0.132-0.849,0.159V15.02c1.989-0.663,3.448-0.875,4.827-0.954v7.928c0,2.175,0,3.209,0.902,3.209
			c0.159,0,0.477,0.026,0.742-0.026l0.053,0.689c-1.22,0.424-2.679,0.796-4.004,1.061L60.717,25.574z"/>
		<path class="st0" d="M67.978,17.751c0-0.928,0-2.121-0.795-2.121c-0.398,0-0.743,0.132-0.849,0.159V15.02
			c1.989-0.663,3.395-0.875,4.774-0.954v1.538c0.663-0.583,1.936-1.538,4.19-1.538c2.387,0,4.004,1.14,4.004,4.72v5.224
			c0,1.405,0.133,1.697,1.087,1.777l0.557,0.053v0.689h-6.471v-0.689l0.557-0.053c0.955-0.08,1.087-0.372,1.087-1.777v-3.765
			c0-2.095,0-4.64-2.758-4.64c-1.087,0-1.777,0.557-2.201,1.008v7.398c0,1.405,0.132,1.697,1.087,1.777l0.557,0.053v0.689h-6.418
			v-0.689l0.557-0.053c0.902-0.08,1.034-0.372,1.034-1.777V17.751z"/>
		<path class="st0" d="M85.771,25.839l0.636-0.08c1.247-0.239,1.247-0.132,1.247-3.155v-9.732c0-2.572,0-2.891-1.247-3.076
			l-0.636-0.08V9.027h7.213v0.689l-0.637,0.08c-1.246,0.186-1.246,0.504-1.246,3.076v12.277c0.795,0.186,1.618,0.371,2.44,0.371
			c3.739,0,3.766-1.803,4.535-4.004l0.955,0.186c-0.159,1.724-0.345,3.129-0.928,4.826H85.771V25.839z"/>
		<path class="st0" d="M99.645,25.839l0.557-0.053c0.955-0.106,1.087-0.372,1.087-1.777v-6.258c0-0.928,0-2.121-0.796-2.121
			c-0.398,0-0.742,0.132-0.848,0.159V15.02c1.989-0.663,3.448-0.875,4.827-0.954v9.943c0,1.405,0.132,1.67,1.087,1.777l0.557,0.053
			v0.689h-6.471V25.839z M100.838,9.982c0-1.008,0.796-1.83,1.856-1.83c1.008,0,1.857,0.822,1.857,1.83
			c0,1.114-0.849,1.883-1.857,1.883C101.634,11.865,100.838,11.069,100.838,9.982z"/>
		<path class="st0" d="M108.801,14.463c0-3.686,1.83-7.425,5.994-7.425c1.405,0,2.307,0.424,2.89,0.875
			c-0.186,0.822-0.398,1.326-1.061,1.989h-0.186c-0.504-0.477-1.724-1.538-2.758-1.538c-1.591,0-1.697,2.148-1.697,4.587v1.511
			c0.796,0.026,2.413,0.133,3.289,0.239v0.689c-1.14,0.133-2.175,0.212-3.289,0.265v8.353c0,1.405,0.133,1.697,1.114,1.777
			l1.061,0.053v0.689h-7.001v-0.689l0.53-0.053c0.981-0.106,1.114-0.372,1.114-1.777v-8.353V14.463z"/>
		<path class="st0" d="M126.922,25.229c-0.69,0.557-2.36,1.697-5.039,1.697c-3.129,0-6.206-1.989-6.206-6.258
			c0-4.216,3.05-6.602,6.073-6.602c4.27,0,4.959,2.784,5.251,4.322c-2.28,1.06-5.224,1.909-7.982,2.545
			c0.292,1.591,1.087,4.455,4.721,4.455c1.432,0,2.546-0.583,2.917-0.769L126.922,25.229z M123.819,18.547
			c-0.186-1.909-0.981-3.474-2.652-3.474c-2.307,0-2.307,4.137-2.307,4.614C120.53,19.422,122.201,19.077,123.819,18.547z"/>
	</g>
	<g>
		<path class="st1" d="M17.104,2.565c-0.05-0.455-0.071-0.919-0.027-1.382c0.021-0.22,0.056-0.439,0.111-0.653
			c0.012-0.049,0.031-0.145,0.056-0.244c0.023-0.09-0.071-0.156-0.14-0.099c-0.622,0.512-1.181,1.197-1.594,1.897
			c-0.34,0.577-0.586,1.233-0.651,1.904c0.84,0.101,1.666,0.282,2.468,0.537C17.364,3.86,17.175,3.214,17.104,2.565z"/>
		<path class="st1" d="M11.174,4.055c0.754-0.12,1.509-0.171,2.259-0.161c-0.017-0.102-0.037-0.203-0.063-0.303
			c-0.085-0.32-0.281-0.611-0.415-0.911c-0.149-0.333-0.284-0.674-0.389-1.026c-0.078-0.262-0.144-0.533-0.175-0.807
			c-0.017-0.152-0.025-0.305-0.021-0.458c0.001-0.029-0.001-0.084-0.002-0.146c-0.001-0.083-0.095-0.122-0.143-0.058
			c-0.39,0.509-0.658,1.126-0.859,1.756c-0.137,0.429-0.248,0.887-0.265,1.345c-0.008,0.203,0.003,0.405,0.038,0.606
			C11.147,3.947,11.161,4.001,11.174,4.055z"/>
		<path class="st1" d="M7.576,5.005c0.021,0.044,0.045,0.086,0.068,0.128C7.718,5.099,7.79,5.063,7.864,5.03
			c0.548-0.241,1.104-0.439,1.663-0.602c-0.034-0.071-0.071-0.142-0.111-0.21C9.268,3.964,9.03,3.761,8.844,3.536
			C8.637,3.286,8.44,3.027,8.266,2.749C8.137,2.544,8.016,2.327,7.924,2.1C7.873,1.974,7.83,1.845,7.797,1.713
			C7.79,1.687,7.775,1.641,7.76,1.588C7.74,1.517,7.65,1.506,7.624,1.572C7.411,2.101,7.328,2.693,7.306,3.281
			C7.291,3.681,7.305,4.099,7.4,4.495C7.441,4.671,7.499,4.842,7.576,5.005z"/>
		<path class="st1" d="M21.617,6.81c0.783,0.622,1.502,1.334,2.137,2.133c0.477-0.629,0.726-1.389,1.091-2.072
			c0.259-0.485,0.551-0.959,0.908-1.388c0.169-0.203,0.353-0.396,0.552-0.572c0.046-0.04,0.129-0.123,0.221-0.204
			c0.083-0.074,0.035-0.203-0.072-0.193C25.492,4.6,24.474,4.9,23.591,5.315C22.845,5.665,22.14,6.165,21.617,6.81z"/>
		<path class="st1" d="M25.536,11.893c0.07,0.158,0.132,0.317,0.195,0.476c0.704-0.53,1.185-1.28,1.772-1.912
			c0.405-0.437,0.843-0.852,1.336-1.202c0.234-0.166,0.479-0.317,0.737-0.446c0.059-0.029,0.169-0.093,0.288-0.152
			c0.108-0.054,0.093-0.203-0.022-0.222c-1.032-0.176-2.182-0.143-3.221,0.046c-0.87,0.159-1.738,0.482-2.46,1.002
			C24.692,10.222,25.155,11.027,25.536,11.893z"/>
		<path class="st1" d="M21.303,4.137c0.1-0.494,0.232-0.987,0.433-1.457c0.095-0.223,0.206-0.441,0.335-0.648
			c0.029-0.047,0.081-0.142,0.141-0.237c0.054-0.087-0.022-0.188-0.114-0.151c-0.823,0.329-1.638,0.86-2.304,1.455
			c-0.566,0.506-1.054,1.132-1.344,1.839c0.852,0.357,1.668,0.799,2.432,1.326C21.142,5.58,21.161,4.84,21.303,4.137z"/>
		<path class="st1" d="M28.881,17.252c-0.695-0.278-1.462-0.437-2.214-0.389c0.03,0.936-0.036,1.867-0.199,2.777
			c0.753-0.058,1.442-0.384,2.155-0.575c0.487-0.13,0.988-0.231,1.498-0.26c0.242-0.014,0.486-0.012,0.729,0.012
			c0.055,0.005,0.163,0.01,0.275,0.02c0.102,0.01,0.158-0.103,0.084-0.169C30.549,18.079,29.71,17.584,28.881,17.252z"/>
		<path class="st1" d="M31.294,13.511c-0.869-0.422-1.897-0.691-2.866-0.791c-0.823-0.085-1.687-0.019-2.469,0.265
			c0.333,0.977,0.547,1.97,0.648,2.963c0.774-0.285,1.4-0.834,2.092-1.248c0.472-0.282,0.967-0.537,1.494-0.72
			c0.25-0.087,0.507-0.158,0.768-0.205c0.06-0.011,0.174-0.038,0.295-0.061C31.365,13.693,31.391,13.558,31.294,13.511z"/>
		<path class="st1" d="M22.096,27.388c-0.502,0.439-1.041,0.844-1.615,1.209c0.378,0.381,0.869,0.613,1.298,0.918
			c0.299,0.212,0.587,0.446,0.84,0.719c0.12,0.129,0.232,0.267,0.331,0.414c0.023,0.034,0.07,0.096,0.116,0.164
			c0.042,0.061,0.131,0.041,0.134-0.031c0.025-0.644-0.087-1.343-0.286-1.961C22.746,28.296,22.476,27.789,22.096,27.388z"/>
		<path class="st1" d="M24.642,24.391c-0.4,0.642-0.857,1.251-1.365,1.822c0.539,0.29,1.152,0.374,1.721,0.559
			c0.392,0.128,0.78,0.282,1.144,0.49c0.172,0.099,0.339,0.209,0.495,0.333c0.036,0.028,0.107,0.079,0.18,0.137
			c0.065,0.052,0.155,0,0.133-0.078c-0.19-0.699-0.544-1.412-0.966-2.01C25.631,25.144,25.177,24.694,24.642,24.391z"/>
		<path class="st1" d="M28.037,21.694c-0.531-0.425-1.157-0.767-1.824-0.923c-0.219,0.816-0.515,1.608-0.883,2.368
			c0.662,0.141,1.34,0.043,2.003,0.065c0.458,0.015,0.92,0.06,1.372,0.169c0.214,0.052,0.426,0.118,0.631,0.203
			c0.047,0.019,0.139,0.052,0.234,0.091c0.086,0.035,0.165-0.048,0.118-0.125C29.27,22.853,28.671,22.201,28.037,21.694z"/>
		<g>
			<path class="st1" d="M10.686,28.151c-2.166,0.266-4.162,0.066-5.763-0.584c0.703,0.572,1.464,1.074,2.275,1.495
				c1.934,1.003,4.142,1.547,6.474,1.486c0.994-0.026,1.958-0.164,2.884-0.395c-1.562-0.173-3.054-0.6-4.437-1.242
				C11.627,28.683,11.148,28.431,10.686,28.151z"/>
			<path class="st1" d="M22.357,22.666c0,0,0.067-0.093-0.004-0.169c-0.062-0.066-0.158,0.006-0.158,0.006
				c-1.295,1.269-2.865,2.438-4.666,3.404c-0.343,0.184-0.687,0.355-1.032,0.517c-1.509,0.71-3.028,1.214-4.494,1.513
				c0.434,0.247,0.882,0.472,1.342,0.676c1.362,0.602,2.828,1.009,4.364,1.198c0.607-0.212,1.194-0.465,1.757-0.758
				c-0.822-0.615-1.595-1.279-2.32-1.98C19.388,25.865,21.179,24.308,22.357,22.666z"/>
			<path class="st1" d="M1.473,20.168c0.102,0.056,0.208,0.11,0.317,0.16c0.402,0.185,0.852,0.328,1.342,0.432
				c0.413,0.087,0.854,0.146,1.32,0.176c-0.192-0.451-0.363-0.912-0.512-1.381c-0.23-0.728-0.407-1.477-0.526-2.241
				c-0.04-0.256-0.073-0.514-0.1-0.774c-0.022-0.217-0.043-0.435-0.056-0.654c-0.007-0.115-0.008-0.23-0.012-0.345
				C3.23,15.1,3.23,14.662,3.25,14.227c-0.521-0.071-0.976-0.203-1.349-0.395c-0.048-0.025-0.093-0.051-0.138-0.078
				c-0.236-0.14-0.438-0.303-0.593-0.498c-0.083-0.105-0.154-0.217-0.211-0.337c-0.053-0.111-0.091-0.228-0.119-0.347
				c-0.196,0.525-0.362,1.064-0.492,1.617c-0.052,0.22-0.098,0.443-0.138,0.667c-0.081,0.448-0.14,0.903-0.174,1.365
				c-0.008,0.11-0.011,0.222-0.017,0.333c-0.017,0.34-0.025,0.682-0.016,1.027c0.012,0.444,0.046,0.881,0.1,1.312
				C0.42,19.418,0.885,19.843,1.473,20.168z"/>
			<path class="st1" d="M5.361,14.229c-0.347,0.037-0.677,0.055-0.995,0.059c0,0.309,0.007,0.62,0.024,0.932
				c0,0.004,0,0.008,0,0.012c0.006,0.103,0.017,0.204,0.025,0.307c0.013,0.176,0.025,0.352,0.042,0.525
				c0.086,0.829,0.23,1.631,0.425,2.403c0.218,0.865,0.501,1.693,0.845,2.479c1.766-0.076,3.781-0.507,5.863-1.296
				c-0.829-1.505-1.531-3.017-2.124-4.47c-0.106-0.261-0.209-0.519-0.309-0.776c0.386-0.154,0.773-0.317,1.162-0.501
				c2.435-1.154,4.375-2.672,5.483-4.143c0.074-0.098,0.138-0.195,0.204-0.293c0,0,0.072-0.104-0.008-0.181
				c-0.077-0.074-0.17,0.004-0.17,0.004c-0.212,0.207-0.434,0.414-0.675,0.619c-1.12,0.952-2.543,1.869-4.17,2.639
				c-0.739,0.349-1.472,0.641-2.191,0.886c-0.715,0.244-1.414,0.44-2.081,0.58C6.245,14.109,5.793,14.182,5.361,14.229z"/>
			<path class="st1" d="M1.849,12.402c0.198,0.184,0.446,0.334,0.739,0.451c0.083,0.033,0.17,0.063,0.259,0.09
				c0.157,0.049,0.325,0.089,0.502,0.121c0.025-0.203,0.053-0.405,0.086-0.607c0.026-0.161,0.051-0.323,0.082-0.483
				c0.102-0.532,0.232-1.057,0.385-1.573C4.227,9.309,4.665,8.256,5.204,7.26c0.148-0.273,0.3-0.543,0.463-0.807
				C5.714,6.378,5.764,6.305,5.812,6.23C5.416,6.501,5.034,6.792,4.67,7.103C4.115,7.578,3.6,8.097,3.129,8.656
				c-0.707,0.84-1.311,1.768-1.796,2.764c0.023,0.167,0.06,0.329,0.131,0.48C1.555,12.091,1.69,12.255,1.849,12.402z"/>
			<path class="st1" d="M4.684,11.016c-0.039,0.197-0.072,0.395-0.103,0.594c-0.082,0.511-0.14,1.029-0.175,1.552
				c0.762,0.01,1.625-0.084,2.555-0.288c0.483-0.106,0.983-0.241,1.493-0.404c-0.059-0.174-0.117-0.347-0.173-0.517
				c-0.243-0.738-0.455-1.44-0.64-2.096C7.576,9.628,7.515,9.406,7.457,9.189C7.358,8.821,7.269,8.471,7.188,8.141
				C7.028,7.489,6.902,6.916,6.804,6.44C6.761,6.23,6.724,6.041,6.692,5.871C6.683,5.828,6.676,5.787,6.668,5.746
				C6.63,5.813,6.591,5.879,6.554,5.945c-0.15,0.268-0.292,0.541-0.428,0.817C5.692,7.643,5.33,8.562,5.05,9.513
				C4.906,10.006,4.784,10.508,4.684,11.016z"/>
			<path class="st1" d="M9.392,27.272c-1.427-1.079-2.663-2.411-3.647-3.919c-0.249-0.382-0.483-0.774-0.698-1.178
				c-0.902-0.008-1.725-0.115-2.443-0.321c-0.392-0.112-0.752-0.253-1.077-0.424c-0.1-0.052-0.195-0.108-0.288-0.166
				c-0.311-0.194-0.582-0.42-0.81-0.677c0.166,0.64,0.378,1.261,0.633,1.86c0.041,0.097,0.08,0.195,0.124,0.291
				c0.148,0.326,0.312,0.642,0.484,0.953c0.153,0.276,0.315,0.547,0.487,0.811c0.294,0.451,0.617,0.882,0.962,1.293
				C4.553,26.955,6.792,27.454,9.392,27.272z"/>
			<path class="st1" d="M14.058,19.837c-0.63,0.309-1.259,0.587-1.883,0.834c-2.069,0.822-4.081,1.306-5.868,1.454
				c0.211,0.388,0.438,0.763,0.679,1.126c1.011,1.526,2.278,2.829,3.738,3.87c1.615-0.246,3.331-0.734,5.055-1.473
				c-1.134-1.273-2.138-2.633-3.022-4.027c0.351-0.154,0.702-0.317,1.051-0.492c3.187-1.591,5.64-3.715,6.983-5.815
				c0,0,0.071-0.098-0.009-0.178c-0.08-0.08-0.171-0.002-0.171-0.002C18.997,16.855,16.74,18.52,14.058,19.837z"/>
		</g>
	</g>
</g>
</svg>
