<?xml version="1.0" encoding="UTF-8" standalone="no"?>
<!-- Created with Inkscape (http://www.inkscape.org/) -->

<svg
   version="1.1"
   id="svg1"
   width="100"
   height="90.002625"
   viewBox="0 0 100 90.002625"
   sodipodi:docname="viver-logo.png"
   inkscape:export-filename="viver-sq-logo.svg"
   inkscape:export-xdpi="96"
   inkscape:export-ydpi="96"
   xmlns:inkscape="http://www.inkscape.org/namespaces/inkscape"
   xmlns:sodipodi="http://sodipodi.sourceforge.net/DTD/sodipodi-0.dtd"
   xmlns="http://www.w3.org/2000/svg"
   xmlns:svg="http://www.w3.org/2000/svg">
  <defs
     id="defs1" />
  <sodipodi:namedview
     id="namedview1"
     pagecolor="#ffffff"
     bordercolor="#000000"
     borderopacity="0.25"
     inkscape:showpageshadow="2"
     inkscape:pageopacity="0.0"
     inkscape:pagecheckerboard="0"
     inkscape:deskcolor="#d1d1d1">
    <inkscape:page
       x="0"
       y="0"
       width="100"
       height="90.002625"
       id="page2"
       margin="0"
       bleed="0" />
  </sodipodi:namedview>
  <g
     inkscape:groupmode="layer"
     inkscape:label="Image"
     id="g1"
     transform="matrix(0.22388436,0,0,0.22388436,-0.04191112,2.5246673e-7)">
    <g
       id="g2">
      <g
         id="g9">
        <path
           style="fill:#f26520"
           d="M 14,187.84699 C 3.1748374,184.70301 -2.6295107,173.22907 1.5477278,163.23153 c 5.5251708,-13.2236 21.3306452,-16.29917 31.1409382,-6.0597 5.454152,5.69277 6.751198,12.44633 3.763606,19.59664 C 32.665731,185.83094 23.177808,190.51252 14,187.84699 Z"
           id="path6" />
        <path
           style="fill:#61a274"
           d="m 34.457381,230.13708 c -3.886505,-2.37007 -8.279475,-7.58007 -9.079691,-10.76838 -1.961927,-7.81694 1.953231,-17.16042 8.98814,-21.4501 3.801359,-2.31796 13.432033,-2.59851 17.43383,-0.50788 9.69539,5.06511 12.963564,17.70927 6.902195,26.70373 -3.788657,5.62199 -8.126144,7.88608 -15.099738,7.88181 -4.178445,-0.003 -7.061292,-0.58866 -9.144736,-1.85918 z"
           id="path5" />
        <path
           style="fill:#3671b7"
           d="m 60.5,275.10996 c -4.840976,-2.23426 -7.887598,-5.40003 -9.952272,-10.34149 -1.822138,-4.36099 -1.893713,-5.98242 -0.4876,-11.0458 2.373348,-8.54638 11.620655,-14.59746 20.315377,-13.29361 6.293928,0.94383 12.003462,5.37792 14.144842,10.98505 C 90.500629,267.07325 75.38835,281.98137 60.5,275.10996 Z"
           id="path3" />
        <path
           style="fill:#25445f"
           d="m 119.25165,399.89552 c -2.3366,-1.15659 -5.2616,-3.30986 -6.5,-4.78504 C 110.66014,392.6191 59,295.11392 59,293.65773 59,293.29598 68.615769,293 80.368377,293 h 21.368373 l 12.84139,24.51341 c 7.06276,13.48238 13.15714,24.39488 13.54305,24.25 0.38592,-0.14487 8.75249,-16.23841 18.59237,-35.76341 19.45035,-38.59474 32.00216,-61.56162 50.55293,-92.5 C 248.48893,128.07283 305.80518,59.813832 369.25864,8.6712997 L 380.01728,0 h 33.65802 c 18.51192,0 33.43728,0.22075816 33.16746,0.4905737 -0.26982,0.26981553 -6.53232,4.4618598 -13.91667,9.315654 C 327.53572,79.080179 240.81753,192.74783 158.51213,369.5 c -5.89053,12.65 -11.90302,24.29424 -13.36109,25.8761 -6.06493,6.5798 -17.65211,8.60176 -25.89939,4.51942 z"
           id="path2"
           sodipodi:nodetypes="sssscssssscssssss" />
      </g>
    </g>
  </g>
</svg>
