<?xml version="1.0" encoding="utf-8"?>
<!-- Generator: Adobe Illustrator 27.8.0, SVG Export Plug-In . SVG Version: 6.00 Build 0)  -->
<svg version="1.1" id="English" xmlns="http://www.w3.org/2000/svg" xmlns:xlink="http://www.w3.org/1999/xlink" x="0px" y="0px"
	 viewBox="0 0 608.9 115.3" style="enable-background:new 0 0 608.9 115.3;" xml:space="preserve">
<style type="text/css">
	.st0{fill:#63666A;}
	.st1{fill:#6DB429;}
</style>
<g id="Group_820" transform="translate(-439 -113.001)">
	<path id="Path_1" class="st0" d="M571.6,135.7l-20.5,52.1l-18.9-52.1h-13.5l25.3,68l-9.8,24.6h13.3l37.7-92.6H571.6z"/>
	<path id="Path_2" class="st0" d="M591.2,205.7v-70h12.1v8c4.7-6,11.9-9.4,19.5-9.1c18.1,0,28.4,10.9,28.4,31.3v39.9h-12.7v-37.1
		c0-14.7-5.4-21.9-16.9-21.9c-13.4,0-17.9,9.1-17.9,27.2v31.8H591.2z"/>
	<path id="Path_3" class="st0" d="M695.8,195.2c13.6-0.6,24.1-12.1,23.5-25.6c-0.6-12.8-10.9-23-23.7-23.5c-13.2,0-24,10.7-24,23.9
		c0,0.1,0,0.1,0,0.2c-0.4,13.4,10.1,24.6,23.5,25C695.3,195.2,695.6,195.2,695.8,195.2 M718.6,197c-6.1,6.5-14.6,10.2-23.5,10.2
		c-19.7,0.5-36.1-15.1-36.6-34.8c0-0.7,0-1.4,0-2c-0.1-9.5,3.5-18.7,10-25.7c6.6-7.2,16-11.2,25.8-10.8c9.2-0.2,18,3.6,24.2,10.3
		v-8.5h12.8v70h-12.8L718.6,197z"/>
	<path id="Path_4" class="st0" d="M468.8,113h-4.4v12.6h1.4c22.9,0,36,13.2,36,34.1c0,20.5-12.6,33.5-33.5,33.5H452v-47.8h-13v60.1
		h26.1c12.2,0,21.8-1,31.7-8.2c12.1-8.7,19.1-22.9,18.7-37.8C515.4,132.2,497,113,468.8,113"/>
	<path id="Path_5" class="st1" d="M777.2,207.5c-9.7,0.3-19.1-3.7-25.7-10.8c-6.6-7-10.4-16.3-10.4-25.9c-0.1-9.4,3.4-18.5,9.9-25.4
		c6.8-7.5,16.4-11.8,26.6-11.7c15.8,0,28.3,9,33.8,25.3h-13.8c-3.7-8.1-12-13.2-21-12.8c-12.2,0-22.4,10.4-22.4,24.5
		c0,14.1,10,24.5,23.1,24.5c8.8,0,16.8-5.2,20.3-13.3h13.8C805.5,198.6,793.8,207.5,777.2,207.5"/>
	<path id="Path_6" class="st1" d="M855,195.2c13.6-0.6,24.1-12.1,23.5-25.6c-0.6-12.8-10.9-23-23.7-23.5c-13.2,0-23.9,10.7-24,23.9
		c0,0.1,0,0.1,0,0.2c-0.4,13.4,10.1,24.6,23.5,25C854.6,195.2,854.8,195.2,855,195.2 M877.8,197c-6.1,6.5-14.6,10.2-23.5,10.2
		c-19.7,0.5-36.1-15.1-36.6-34.9c0-0.7,0-1.3,0-2c-0.1-9.5,3.5-18.7,10-25.7c6.6-7.2,16-11.2,25.8-10.8c9.2-0.2,18,3.6,24.2,10.3
		v-8.5h12.8v70h-12.8L877.8,197z"/>
	<path id="Path_7" class="st1" d="M904,205.7v-70h11.9v8.1c3.5-5.8,9.8-9.4,16.5-9.2v13.2c-11.8,0.9-15.8,6.8-15.8,19v39H904z"/>
	<path id="Path_13" class="st1" d="M948.4,164c2.3-10.6,11.8-18.2,22.7-18.1c10.8,0,18.9,6.7,22,18.1L948.4,164z M1006.9,173.3
		c0.4-8.2-1.7-16.4-6-23.4c-6.6-10.2-18-16.4-30.2-16.3c-9.9-0.2-19.5,4-26.1,11.5c-6.5,6.9-10.1,16.1-9.9,25.5
		c0.1,9.6,3.8,18.9,10.4,25.9c5.7,6.2,13.6,10.1,22,10.8c1.2,0.1,2.5,0.2,3.8,0.2c3.8,0,7.6-0.6,11.3-1.7c0.6-0.2,1.3-0.4,1.9-0.6
		v-14.4c-3.8,2.8-8.4,4.2-13.2,4.2c-11.5,0.1-21.3-8.3-22.9-19.7h58.9V173.3z"/>
	<path id="Path_14" class="st0" d="M1026.7,144.4h-3v4h3.1c1.5,0,2.4-0.8,2.4-2C1029.2,145,1028.2,144.3,1026.7,144.4 M1029.3,150.5
		l3.4,4.9h-3.5l-2.9-4.4h-2.4v4.4h-3v-13.8h6.1c3.3,0,5.4,1.7,5.4,4.6C1032.3,148.2,1031.1,149.9,1029.3,150.5 M1026.1,137.6
		c-6,0-10.8,4.7-10.9,10.7c0,3.2,1.3,6.3,4.1,8.7c1.7,1.5,3.9,2.4,6.1,2.6c6.1,0.3,11.3-4.5,11.4-10.6c0-0.2,0-0.3,0-0.5
		c0.1-5.9-4.6-10.7-10.5-10.8C1026.3,137.6,1026.2,137.6,1026.1,137.6 M1026,161.4c-7.2,0-13-5.9-12.9-13.2
		c0.1-6.9,5.9-12.7,12.8-12.7c7.2-0.1,13.1,5.7,13.1,12.9c0.1,7.1-5.6,12.9-12.8,13C1026.2,161.4,1026.1,161.4,1026,161.4"/>
</g>
</svg>
