<svg width="109px" height="48px" viewBox="0 0 109 48" version="1.1" xmlns="http://www.w3.org/2000/svg" xmlns:xlink="http://www.w3.org/1999/xlink">
    <g id="1.-Homepage" stroke="none" stroke-width="1" fill="none" fill-rule="evenodd">
        <g transform="translate(-16.000000, -16.000000)" fill="#000000" id="Navigation">
            <g id="Logo-Section" transform="translate(16.000000, 16.000000)">
                <path d="M14.5688287,6.67753546 L14.5688287,15.287055 L6.21937168,15.287055 L6.21937168,6.67753546 L0.000241191797,6.67753546 L0.000241191797,29.318712 L6.21937168,29.318712 L6.21937168,20.5315842 L14.5688287,20.5315842 L14.5688287,29.318712 L20.7867533,29.318712 L20.7867533,6.67753546 L14.5688287,6.67753546 Z M36.0745747,6.67711685 L47.0096078,29.3188914 L40.3412576,29.3188914 L39.0195266,26.400613 L29.7975582,26.400613 L28.4450752,29.3188914 L21.776725,29.3188914 L32.6798002,6.67711685 L36.0745747,6.67711685 Z M47.4702239,6.67711685 L53.0580348,19.1587375 L58.6428309,6.67711685 L65.5541819,6.67711685 L55.2504683,29.3188914 L50.8643954,29.3188914 L40.5606819,6.67711685 L47.4702239,6.67711685 Z M34.4230139,16.2703594 L32.1099846,21.3049878 L36.7064972,21.3049878 L34.4230139,16.2703594 Z M84.3991603,29.3188914 L67.2160536,29.3188914 L67.2160536,6.67711685 L84.1893234,6.67711685 L84.1893234,11.919852 L73.4351841,11.919852 L73.4351841,15.6161387 L83.437408,15.6161387 L83.437408,20.4719628 L73.4351841,20.4719628 L73.4351841,24.0761563 L84.3991603,24.0761563 L84.3991603,29.3188914 Z M102.782256,6.67753546 L102.782256,18.625135 L90.4959462,6.67753546 L86.9516327,6.67753546 L86.9516327,29.318712 L93.1689543,29.318712 L93.1689543,17.7012128 L105.483604,29.318712 L108.998372,29.318712 L108.998372,6.67753546 L102.782256,6.67753546 Z M0,0.549569247 L109,0.549569247 L109,-1.07094889e-13 L0,-1.07094889e-13 L0,0.549569247 Z M0,47.9757807 L109,47.9757807 L109,46.4646148 L0,46.4646148 L0,47.9757807 Z M2.58014925,35.3600269 C4.1901045,35.3600269 5.26702587,36.3622881 5.26702587,37.866278 C5.26702587,39.3702678 4.1901045,40.371333 2.58014925,40.371333 L0.419673727,40.371333 L0.419673727,35.3600269 L2.58014925,35.3600269 Z M2.5994446,39.4222945 C3.55094624,39.4222945 4.16900022,38.7961802 4.16900022,37.866278 C4.16900022,36.9363757 3.55094624,36.3090654 2.5994446,36.3090654 L1.51649343,36.3090654 L1.51649343,39.4222945 L2.5994446,39.4222945 Z M14.1505419,40.3729476 L10.4398061,40.3729476 L10.4398061,35.3598475 L14.117378,35.3598475 L14.117378,36.3160621 L11.5366257,36.3160621 L11.5366257,37.4050345 L13.9509556,37.4050345 L13.9509556,38.3152025 L11.5366257,38.3152025 L11.5366257,39.4221151 L14.1505419,39.4221151 L14.1505419,40.3729476 Z M22.0758028,40.3729476 L21.3250934,40.3729476 L19.0235206,35.3598475 L20.2330975,35.3598475 L21.7043675,38.5920801 L23.1738285,35.3598475 L24.3834053,35.3598475 L22.0758028,40.3729476 Z M33.0815654,40.3729476 L29.3696237,40.3729476 L29.3696237,35.3598475 L33.0484016,35.3598475 L33.0484016,36.3160621 L30.4676493,36.3160621 L30.4676493,37.4050345 L32.8801703,37.4050345 L32.8801703,38.3152025 L30.4676493,38.3152025 L30.4676493,39.4221151 L33.0815654,39.4221151 L33.0815654,40.3729476 Z M41.9308322,40.3729476 L38.3256178,40.3729476 L38.3256178,35.3598475 L39.4236434,35.3598475 L39.4236434,39.4221151 L41.9308322,39.4221151 L41.9308322,40.3729476 Z M52.084645,37.8792547 C52.084645,39.3312179 50.9076291,40.4716189 49.4255055,40.4716189 C47.9488087,40.4716189 46.7717927,39.3312179 46.7717927,37.8792547 C46.7717927,36.4213115 47.9488087,35.2623722 49.4255055,35.2623722 C50.9076291,35.2623722 52.084645,36.4213115 52.084645,37.8792547 M50.9805896,37.8792547 C50.9805896,36.9565286 50.2956049,36.2580554 49.4255055,36.2580554 C48.5529942,36.2580554 47.8686124,36.9565286 47.8686124,37.8792547 C47.8686124,38.7965988 48.5529942,39.4819159 49.4255055,39.4819159 C50.2956049,39.4819159 50.9805896,38.7965988 50.9805896,37.8792547 M59.3055657,35.3600269 C60.3812811,35.3600269 61.0487794,35.9807591 61.0487794,36.8562426 C61.0487794,37.7418923 60.3812811,38.3608305 59.3055657,38.3608305 L58.354667,38.3608305 L58.354667,40.371333 L57.2566413,40.371333 L57.2566413,35.3600269 L59.3055657,35.3600269 Z M59.2525035,37.4309282 C59.7252394,37.4309282 59.971255,37.1803629 59.971255,36.8562426 C59.971255,36.5398965 59.7252394,36.2893312 59.2525035,36.2893312 L58.354667,36.2893312 L58.354667,37.4309282 L59.2525035,37.4309282 Z M71.514815,40.3729476 L70.4499533,40.3729476 L70.4499533,37.292011 L69.0323485,38.9018482 L68.6144837,38.9018482 L67.1908491,37.292011 L67.1908491,40.3729476 L66.1271933,40.3729476 L66.1271933,35.3598475 L66.8260465,35.3598475 L68.8194967,37.6274934 L70.8147558,35.3598475 L71.514815,35.3598475 L71.514815,40.3729476 Z M80.5825413,40.3729476 L76.8724084,40.3729476 L76.8724084,35.3598475 L80.5493774,35.3598475 L80.5493774,36.3160621 L77.9686252,36.3160621 L77.9686252,37.4050345 L80.383558,37.4050345 L80.383558,38.3152025 L77.9686252,38.3152025 L77.9686252,39.4221151 L80.5825413,39.4221151 L80.5825413,40.3729476 Z M90.6166024,40.3729476 L89.9304117,40.3729476 L86.9269709,37.3123433 L86.9269709,40.3729476 L85.8289452,40.3729476 L85.8289452,35.3598475 L86.5199597,35.3598475 L89.5282244,38.4922128 L89.5282244,35.3598475 L90.6166024,35.3598475 L90.6166024,40.3729476 Z M98.3092339,36.309783 L98.3092339,40.3726486 L97.2130172,40.3726486 L97.2130172,36.309783 L95.6953178,36.309783 L95.6953178,35.3601465 L99.8251243,35.3601465 L99.8251243,36.309783 L98.3092339,36.309783 Z M108.537454,36.6919101 L107.446062,36.916163 C107.351997,36.4102484 106.980561,36.1847994 106.568726,36.1847994 C106.208748,36.1847994 105.897007,36.3624077 105.897007,36.7253985 C105.897007,36.9550335 106.015794,37.1081236 106.321505,37.1996188 L107.392396,37.518357 C108.156974,37.746796 108.59534,38.1438732 108.59534,38.9153034 C108.59534,39.9558371 107.711976,40.4713199 106.661585,40.4713199 C105.611798,40.4713199 104.719388,39.950455 104.592763,38.9667321 L105.737218,38.735901 C105.849975,39.2902543 106.208748,39.5282615 106.720677,39.5282615 C107.194016,39.5282615 107.466563,39.3165667 107.466563,38.9745062 C107.466563,38.7167648 107.326672,38.5666648 106.974532,38.4661995 L106.003735,38.203076 C105.351914,38.0182916 104.725418,37.6678589 104.725418,36.8043356 C104.725418,35.8343668 105.483363,35.2620732 106.575359,35.2620732 C107.61369,35.2620732 108.351134,35.7811441 108.537454,36.6919101" id="Logo"></path>
            </g>
        </g>
    </g>
</svg>
