<?xml version="1.0" encoding="UTF-8" standalone="no"?>
<svg
   width="100"
   height="100"
   viewBox="0 0 100 100"
   version="1.1"
   id="svg1"
   sodipodi:docname="haven-sq-logo.svg"
   xmlns:inkscape="http://www.inkscape.org/namespaces/inkscape"
   xmlns:sodipodi="http://sodipodi.sourceforge.net/DTD/sodipodi-0.dtd"
   xmlns="http://www.w3.org/2000/svg"
   xmlns:svg="http://www.w3.org/2000/svg">
  <defs
     id="defs1" />
  <sodipodi:namedview
     id="namedview1"
     pagecolor="#ffffff"
     bordercolor="#000000"
     borderopacity="0.25"
     inkscape:showpageshadow="2"
     inkscape:pageopacity="0.0"
     inkscape:pagecheckerboard="0"
     inkscape:deskcolor="#d1d1d1">
    <inkscape:page
       x="0"
       y="0"
       width="100"
       height="100"
       id="page2"
       margin="0"
       bleed="0" />
  </sodipodi:namedview>
  <g
     id="1.-Homepage"
     stroke="none"
     stroke-width="1"
     fill="none"
     fill-rule="evenodd"
     transform="matrix(0.91742123,0,0,0.91742123,5.42965e-4,27.993)">
    <g
       transform="translate(-16,-16)"
       fill="#000000"
       id="Navigation">
      <g
         id="Logo-Section"
         transform="translate(16,16)">
        <path
           d="M 14.568829,6.6775355 V 15.287055 H 6.2193717 V 6.6775355 H 2.411918e-4 V 29.318712 H 6.2193717 v -8.787128 h 8.3494573 v 8.787128 h 6.217924 V 6.6775355 Z M 36.074575,6.6771168 47.009608,29.318891 h -6.66835 l -1.321731,-2.918278 h -9.221969 l -1.352483,2.918278 h -6.66835 L 32.6798,6.6771168 Z m 11.395649,0 5.587811,12.4816202 5.584796,-12.4816202 h 6.911351 L 55.250468,29.318891 H 50.864395 L 40.560682,6.6771168 Z m -13.04721,9.5932422 -2.313029,5.034629 h 4.596512 z M 84.39916,29.318891 H 67.216054 V 6.6771168 H 84.189323 V 11.919852 H 73.435184 v 3.696287 h 10.002224 v 4.855824 H 73.435184 v 3.604193 H 84.39916 Z M 102.78226,6.6775355 V 18.625135 L 90.495946,6.6775355 H 86.951633 V 29.318712 h 6.217321 V 17.701213 L 105.4836,29.318712 h 3.51477 V 6.6775355 Z M 0,0.54956925 H 109 V 0 H 0 Z M 0,47.975781 H 109 V 46.464615 H 0 Z M 2.5801492,35.360027 c 1.6099553,0 2.6868767,1.002261 2.6868767,2.506251 0,1.50399 -1.0769214,2.505055 -2.6868767,2.505055 H 0.41967373 v -5.011306 z m 0.019295,4.062267 c 0.9515016,0 1.5695556,-0.626114 1.5695556,-1.556016 0,-0.929902 -0.618054,-1.557213 -1.5695556,-1.557213 H 1.5164934 v 3.113229 z m 11.5510978,0.950654 h -3.710736 v -5.013101 h 3.677572 v 0.956215 h -2.580752 v 1.088972 h 2.41433 v 0.910168 h -2.41433 v 1.106913 h 2.613916 z m 7.925261,0 h -0.75071 l -2.301572,-5.013101 h 1.209576 l 1.47127,3.232233 1.469461,-3.232233 h 1.209577 z m 11.005762,0 h -3.711941 v -5.013101 h 3.678778 v 0.956215 h -2.580753 v 1.088972 h 2.412521 v 0.910168 h -2.412521 v 1.106913 h 2.613916 z m 8.849267,0 h -3.605214 v -5.013101 h 1.098025 v 4.062268 h 2.507189 z m 10.153813,-2.493693 c 0,1.451963 -1.177016,2.592364 -2.65914,2.592364 -1.476696,0 -2.653712,-1.140401 -2.653712,-2.592364 0,-1.457943 1.177016,-2.616883 2.653712,-2.616883 1.482124,0 2.65914,1.15894 2.65914,2.616883 m -1.104055,0 c 0,-0.922726 -0.684985,-1.6212 -1.555085,-1.6212 -0.872511,0 -1.556893,0.698474 -1.556893,1.6212 0,0.917344 0.684382,1.602661 1.556893,1.602661 0.8701,0 1.555085,-0.685317 1.555085,-1.602661 m 8.324976,-2.519228 c 1.075715,0 1.743213,0.620732 1.743213,1.496216 0,0.885649 -0.667498,1.504587 -1.743213,1.504587 h -0.950899 v 2.010503 h -1.098026 v -5.011306 z m -0.05306,2.070901 c 0.472735,0 0.718751,-0.250565 0.718751,-0.574685 0,-0.316347 -0.246016,-0.566912 -0.718751,-0.566912 h -0.897837 v 1.141597 z m 12.262311,2.94202 h -1.064862 v -3.080937 l -1.417605,1.609837 h -0.417864 l -1.423635,-1.609837 v 3.080937 h -1.063656 v -5.013101 h 0.698854 l 1.99345,2.267646 1.995259,-2.267646 h 0.700059 z m 9.067726,0 H 76.87241 v -5.013101 h 3.676969 v 0.956215 h -2.580752 v 1.088972 h 2.414933 v 0.910168 h -2.414933 v 1.106913 h 2.613916 z m 10.034061,0 h -0.68619 l -3.003441,-3.060605 v 3.060605 h -1.098026 v -5.013101 h 0.691015 l 3.008264,3.132366 v -3.132366 h 1.088378 z m 7.692632,-4.063165 v 4.062866 H 97.213019 V 36.309783 H 95.69532 v -0.949637 h 4.129806 v 0.949637 z m 10.228214,0.382127 -1.09139,0.224253 c -0.0941,-0.505915 -0.4655,-0.731364 -0.87733,-0.731364 -0.35998,0 -0.67172,0.177609 -0.67172,0.540599 0,0.229635 0.11878,0.382726 0.4245,0.474221 l 1.07089,0.318738 c 0.76457,0.228439 1.20294,0.625516 1.20294,1.396946 0,1.040534 -0.88336,1.556017 -1.93375,1.556017 -1.04979,0 -1.9422,-0.520865 -2.06883,-1.504588 l 1.14446,-0.230831 c 0.11276,0.554353 0.47153,0.79236 0.98346,0.79236 0.47334,0 0.74588,-0.211694 0.74588,-0.553755 0,-0.257741 -0.13989,-0.407841 -0.49203,-0.508306 l -0.97079,-0.263124 c -0.65183,-0.184784 -1.27832,-0.535217 -1.27832,-1.39874 0,-0.969969 0.75794,-1.542263 1.84994,-1.542263 1.03833,0 1.77577,0.519071 1.96209,1.429837"
           id="Logo" />
      </g>
    </g>
  </g>
</svg>
