<?xml version="1.0" encoding="UTF-8" standalone="no"?>
<!-- Created with Inkscape (http://www.inkscape.org/) -->
<svg xmlns:inkscape="http://www.inkscape.org/namespaces/inkscape" xmlns:sodipodi="http://sodipodi.sourceforge.net/DTD/sodipodi-0.dtd" xmlns="http://www.w3.org/2000/svg" xmlns:svg="http://www.w3.org/2000/svg" width="118.62893mm" height="106.94389mm" viewBox="0 0 118.62893 106.94389" version="1.1" id="svg1" inkscape:version="1.3.2 (091e20e, 2023-11-25)" sodipodi:docname="viver-icon.svg">
  <defs id="defs1"></defs>
  <g inkscape:label="Layer 1" inkscape:groupmode="layer" id="layer1" transform="translate(-45.685536,-95.028055)">
    <g id="g1" transform="translate(1.7368941,3.220383)">
      <path d="m 148.03066,91.82829 c 0.42218,0.005 0.84437,0.0087 1.26657,0.01135 1.09957,0.01 2.19818,0.03589 3.29738,0.06536 1.12628,0.0273 2.25272,0.0392 3.37923,0.05248 2.20168,0.02819 4.40259,0.07321 6.60373,0.129191 -0.66343,0.675848 -1.27185,1.238066 -2.08462,1.725993 -0.29638,0.181137 -0.29638,0.181137 -0.59874,0.365934 -0.31703,0.192328 -0.31703,0.192328 -0.64047,0.388542 -2.70692,1.676461 -5.2595,3.525213 -7.78867,5.45703 -0.17296,0.13208 -0.34592,0.26416 -0.52412,0.40024 -2.265,1.73829 -4.45583,3.55839 -6.61963,5.4206 -0.18929,0.16234 -0.37858,0.32469 -0.5736,0.49196 -1.20952,1.04741 -2.38647,2.12984 -3.56212,3.21492 -0.7246,0.66709 -1.45728,1.31857 -2.21428,1.94858 -0.72207,0.63182 -1.26061,1.26826 -1.85208,2.01745 -0.20191,0.15826 -0.40382,0.31651 -0.61185,0.47956 -0.78559,0.63943 -1.39069,1.34319 -2.04638,2.1115 -0.54664,0.6177 -1.11972,1.19589 -1.70739,1.77457 -1.07114,1.06033 -2.06529,2.16089 -3.04271,3.30729 -0.23308,0.2692 -0.46633,0.53825 -0.6997,0.80718 -3.47177,4.01031 -6.73251,8.15556 -9.88364,12.42199 -0.22264,0.29891 -0.4453,0.59782 -0.66798,0.89671 -1.78788,2.40861 -3.48068,4.87055 -5.13631,7.37151 -0.18987,0.28598 -0.18987,0.28598 -0.38356,0.57772 -3.19896,4.81851 -6.24947,9.70213 -9.15798,14.70197 -0.13088,0.22425 -0.26177,0.4485 -0.39661,0.67955 -4.434866,7.61362 -8.686207,15.45793 -12.37057,23.46575 -0.471162,1.02081 -0.977587,2.0221 -1.487246,3.0241 -0.861817,1.69755 -1.651413,3.42266 -2.43086,5.15938 -3.112219,6.87546 -3.112219,6.87546 -6.052343,8.25169 -2.094979,0.42755 -3.718439,0.2034 -5.572787,-0.89297 -0.989303,-0.71224 -1.565971,-1.33823 -2.132168,-2.41535 -0.143846,-0.27028 -0.28769,-0.54055 -0.435893,-0.81901 -0.151175,-0.29146 -0.302353,-0.58292 -0.458111,-0.88322 -0.240577,-0.45535 -0.240577,-0.45535 -0.486018,-0.9199 -0.42409,-0.80338 -0.844261,-1.60873 -1.262953,-2.41494 -0.247058,-0.47568 -0.494684,-0.95107 -0.742479,-1.42636 -0.789488,-1.5155 -1.575994,-3.03251 -2.359933,-4.55089 -0.709742,-1.37438 -1.423421,-2.74654 -2.143538,-4.11551 -0.09893,-0.18857 -0.19786,-0.37713 -0.299788,-0.57141 -0.616601,-1.17103 -1.242127,-2.33696 -1.873205,-3.50023 -0.396052,-0.73052 -0.790554,-1.46187 -1.185021,-2.19325 -0.197078,-0.36428 -0.394941,-0.72813 -0.593601,-1.09155 -0.278741,-0.50998 -0.554873,-1.02129 -0.830522,-1.53294 -0.242848,-0.44666 -0.242848,-0.44666 -0.490603,-0.90233 -0.104471,-0.23395 -0.208944,-0.4679 -0.316582,-0.70894 0.08731,-0.17463 0.174625,-0.34925 0.264583,-0.52917 1.671262,-0.0537 3.342301,-0.0908 5.014227,-0.11627 0.568526,-0.0106 1.136994,-0.0251 1.705324,-0.0434 0.817817,-0.0257 1.634869,-0.0377 2.453016,-0.047 0.253606,-0.0109 0.507211,-0.0219 0.768503,-0.0331 1.716912,-0.001 1.716912,-0.001 2.390544,0.65267 0.354351,0.55242 0.629224,1.1052 0.897552,1.70381 0.180766,0.33958 0.362825,0.67847 0.546285,1.0166 0.177448,0.34762 0.353962,0.69572 0.529619,1.04425 0.143179,0.28056 0.143179,0.28056 0.289253,0.56679 0.402725,0.78918 0.803211,1.57949 1.203873,2.36973 0.295243,0.58151 0.591656,1.16241 0.888124,1.7433 0.08877,0.17615 0.177546,0.35231 0.26901,0.53379 0.545581,1.06857 1.146265,2.0581 1.830085,3.04429 0.06985,-0.14773 0.139708,-0.29545 0.21168,-0.44765 3.526536,-7.44004 7.125949,-14.86502 11.165404,-22.04194 0.269488,-0.48364 0.538892,-0.96733 0.80822,-1.45107 3.959529,-7.08432 8.113871,-14.06522 12.685529,-20.77393 0.10791,-0.15859 0.21581,-0.31719 0.32698,-0.48059 3.33952,-4.90267 6.78217,-9.72782 10.52094,-14.33607 0.33629,-0.42439 0.67253,-0.84883 1.00872,-1.27331 2.63297,-3.29121 5.42367,-6.45082 8.25169,-9.57461 0.21319,-0.23617 0.42638,-0.47233 0.64602,-0.71565 1.64999,-1.81556 3.34243,-3.57905 5.0807,-5.31014 0.41186,-0.41042 0.82225,-0.82226 1.23255,-1.23423 1.28672,-1.28757 2.58481,-2.54911 3.96894,-3.73304 0.6332,-0.541718 1.24244,-1.108469 1.85448,-1.673868 1.17616,-1.071007 2.3698,-2.107889 3.61976,-3.092164 0.526,-0.426552 1.03843,-0.870462 1.53491,-1.33104 2.36308,-2.074496 4.12792,-2.325694 7.20323,-2.218251 z" style="display:block;fill:#495057;stroke-width:0.264583" id="path3"></path>
      <path d="m 64.218721,155.47092 c 1.32379,0.75184 2.361294,1.84182 2.844271,3.29075 0.14376,1.73619 0.132949,3.23793 -0.79375,4.7625 -1.242038,1.32484 -2.449647,2.10721 -4.282943,2.23242 -1.682278,-0.0477 -3.19462,-0.69094 -4.370792,-1.90479 -0.925747,-1.31526 -1.222108,-2.70058 -1.135848,-4.29638 0.379927,-1.90963 1.40663,-2.92446 2.960026,-4.05143 1.519814,-0.80947 3.226494,-0.71881 4.779036,-0.0331 z" style="display:block;fill:#495057;stroke-width:0.264583" id="path16"></path>
      <path d="m 51.256205,131.97571 c 1.267585,0.69415 2.310637,1.62079 2.842204,2.97346 0.08888,0.91571 0.08888,0.91571 0.09922,1.9513 0.0075,0.34039 0.01501,0.68077 0.02274,1.03147 -0.177457,1.43469 -0.869292,2.42358 -1.990576,3.31762 -1.464,1.09021 -2.983906,0.97189 -4.745964,0.84336 -1.556802,-0.5378 -2.536219,-1.55537 -3.439583,-2.91042 -0.0589,-0.70144 -0.08586,-1.36606 -0.08268,-2.06705 -0.0043,-0.18503 -0.0085,-0.37006 -0.01292,-0.56069 -0.0014,-1.45938 0.343004,-2.49064 1.236617,-3.63957 1.730976,-1.34632 3.971699,-1.6477 6.070947,-0.93948 z" style="display:block;fill:#495057;stroke-width:0.264583" id="path18"></path>
      <path d="m 57.5814,143.59774 c 1.340112,0.70843 2.212047,1.77612 2.949691,3.07578 0.489287,1.91267 0.248123,3.4196 -0.719336,5.1449 -0.700783,0.98591 -1.378805,1.54941 -2.538346,1.91617 -1.757735,0.21918 -3.560377,0.31522 -5.027084,-0.79375 -1.675932,-1.71565 -1.946306,-2.74124 -1.926497,-5.16041 0.125361,-1.55831 0.642329,-2.32346 1.794206,-3.38894 1.6745,-1.13029 3.493399,-1.42086 5.467366,-0.79375 z" style="display:block;fill:#495057;stroke-width:0.264583" id="path19"></path>
    </g>
  </g>
</svg>
